<?xml version="1.0" encoding="UTF-8" standalone="no"?>
<!DOCTYPE svg PUBLIC "-//W3C//DTD SVG 1.1//EN"
 "http://www.w3.org/Graphics/SVG/1.1/DTD/svg11.dtd">
<!-- Generated by graphviz version 2.43.0 (0)
 -->
<!-- Title: main Pages: 1 -->
<svg width="448pt" height="332pt"
 viewBox="0.00 0.00 448.00 332.00" xmlns="http://www.w3.org/2000/svg" xmlns:xlink="http://www.w3.org/1999/xlink">
<g id="graph0" class="graph" transform="scale(1 1) rotate(0) translate(4 328)">
<title>main</title>
<!-- Node1 -->
<g id="node1" class="node">
<title>Node1</title>
<g id="a_node1"><a xlink:title=" ">
<polygon fill="#bfbfbf" stroke="black" points="0,-190.5 0,-209.5 41,-209.5 41,-190.5 0,-190.5"/>
<text text-anchor="middle" x="20.5" y="-197.5" font-family="Helvetica,sans-Serif" font-size="10.00">main</text>
</a>
</g>
</g>
<!-- Node2 -->
<g id="node2" class="node">
<title>Node2</title>
<g id="a_node2"><a xlink:href="sdb_8h.html#a2743f688b5146ccdfbac2a01ff8e5879" target="_top" xlink:title="Closes the database.">
<polygon fill="none" stroke="black" points="94.5,-304.5 94.5,-323.5 159.5,-323.5 159.5,-304.5 94.5,-304.5"/>
<text text-anchor="middle" x="127" y="-311.5" font-family="Helvetica,sans-Serif" font-size="10.00">sdb_close</text>
</a>
</g>
</g>
<!-- Node1&#45;&gt;Node2 -->
<g id="edge1" class="edge">
<title>Node1&#45;&gt;Node2</title>
<path fill="none" stroke="midnightblue" d="M24.73,-209.79C31.47,-228.8 48.8,-270.96 77,-295 79.53,-297.16 82.34,-299.09 85.29,-300.81"/>
<polygon fill="midnightblue" stroke="midnightblue" points="83.94,-304.05 94.45,-305.38 87.06,-297.78 83.94,-304.05"/>
</g>
<!-- Node3 -->
<g id="node3" class="node">
<title>Node3</title>
<g id="a_node3"><a xlink:href="sdb_8h.html#a523c4c4709d3040e7045c4cc0da47d50" target="_top" xlink:title=" ">
<polygon fill="none" stroke="black" points="85.5,-266.5 85.5,-285.5 168.5,-285.5 168.5,-266.5 85.5,-266.5"/>
<text text-anchor="middle" x="127" y="-273.5" font-family="Helvetica,sans-Serif" font-size="10.00">sdb_free_info</text>
</a>
</g>
</g>
<!-- Node1&#45;&gt;Node3 -->
<g id="edge2" class="edge">
<title>Node1&#45;&gt;Node3</title>
<path fill="none" stroke="midnightblue" d="M28.77,-209.72C38.52,-222.17 56.95,-243.74 77,-257 79.9,-258.92 83.03,-260.69 86.25,-262.31"/>
<polygon fill="midnightblue" stroke="midnightblue" points="84.9,-265.54 95.46,-266.49 87.8,-259.17 84.9,-265.54"/>
</g>
<!-- Node4 -->
<g id="node4" class="node">
<title>Node4</title>
<g id="a_node4"><a xlink:href="sdb_8h.html#a19d24c836d2eca10ac56d2a2e39a1789" target="_top" xlink:title=" ">
<polygon fill="none" stroke="black" points="98,-228.5 98,-247.5 156,-247.5 156,-228.5 98,-228.5"/>
<text text-anchor="middle" x="127" y="-235.5" font-family="Helvetica,sans-Serif" font-size="10.00">sdb_info</text>
</a>
</g>
</g>
<!-- Node1&#45;&gt;Node4 -->
<g id="edge3" class="edge">
<title>Node1&#45;&gt;Node4</title>
<path fill="none" stroke="midnightblue" d="M41.16,-207.15C54.86,-212.13 73.56,-218.93 89.91,-224.88"/>
<polygon fill="midnightblue" stroke="midnightblue" points="89.13,-228.32 99.72,-228.44 91.52,-221.74 89.13,-228.32"/>
</g>
<!-- Node5 -->
<g id="node5" class="node">
<title>Node5</title>
<g id="a_node5"><a xlink:href="sdb_8h.html#af4857c5c1460dbb058578dc550a5eb59" target="_top" xlink:title="Opens a database file.">
<polygon fill="none" stroke="black" points="95.5,-190.5 95.5,-209.5 158.5,-209.5 158.5,-190.5 95.5,-190.5"/>
<text text-anchor="middle" x="127" y="-197.5" font-family="Helvetica,sans-Serif" font-size="10.00">sdb_open</text>
</a>
</g>
</g>
<!-- Node1&#45;&gt;Node5 -->
<g id="edge4" class="edge">
<title>Node1&#45;&gt;Node5</title>
<path fill="none" stroke="midnightblue" d="M41.16,-200C53.55,-200 70.02,-200 85.14,-200"/>
<polygon fill="midnightblue" stroke="midnightblue" points="85.34,-203.5 95.34,-200 85.34,-196.5 85.34,-203.5"/>
</g>
<!-- Node8 -->
<g id="node8" class="node">
<title>Node8</title>
<g id="a_node8"><a xlink:href="sdb_8h.html#a701b4155247ba539ce535ebbf7eb69d0" target="_top" xlink:title="Creates a table in the database.">
<polygon fill="none" stroke="black" points="77,-152.5 77,-171.5 177,-171.5 177,-152.5 77,-152.5"/>
<text text-anchor="middle" x="127" y="-159.5" font-family="Helvetica,sans-Serif" font-size="10.00">sdb_table_create</text>
</a>
</g>
</g>
<!-- Node1&#45;&gt;Node8 -->
<g id="edge7" class="edge">
<title>Node1&#45;&gt;Node8</title>
<path fill="none" stroke="midnightblue" d="M41.16,-192.85C54.86,-187.87 73.56,-181.07 89.91,-175.12"/>
<polygon fill="midnightblue" stroke="midnightblue" points="91.52,-178.26 99.72,-171.56 89.13,-171.68 91.52,-178.26"/>
</g>
<!-- Node9 -->
<g id="node9" class="node">
<title>Node9</title>
<g id="a_node9"><a xlink:href="sdb_8h.html#a33d06c83e2d45ba5fec0560fa933fec9" target="_top" xlink:title="Gets a value from the database.">
<polygon fill="none" stroke="black" points="84.5,-114.5 84.5,-133.5 169.5,-133.5 169.5,-114.5 84.5,-114.5"/>
<text text-anchor="middle" x="127" y="-121.5" font-family="Helvetica,sans-Serif" font-size="10.00">sdb_table_get</text>
</a>
</g>
</g>
<!-- Node1&#45;&gt;Node9 -->
<g id="edge8" class="edge">
<title>Node1&#45;&gt;Node9</title>
<path fill="none" stroke="midnightblue" d="M28.77,-190.28C38.52,-177.83 56.95,-156.26 77,-143 79.9,-141.08 83.03,-139.31 86.25,-137.69"/>
<polygon fill="midnightblue" stroke="midnightblue" points="87.8,-140.83 95.46,-133.51 84.9,-134.46 87.8,-140.83"/>
</g>
<!-- Node11 -->
<g id="node11" class="node">
<title>Node11</title>
<g id="a_node11"><a xlink:href="sdb_8h.html#a59a73b6989beba1f08df6a9d1ec9e8ae" target="_top" xlink:title="Sets a value in the database.">
<polygon fill="none" stroke="black" points="85,-76.5 85,-95.5 169,-95.5 169,-76.5 85,-76.5"/>
<text text-anchor="middle" x="127" y="-83.5" font-family="Helvetica,sans-Serif" font-size="10.00">sdb_table_set</text>
</a>
</g>
</g>
<!-- Node1&#45;&gt;Node11 -->
<g id="edge10" class="edge">
<title>Node1&#45;&gt;Node11</title>
<path fill="none" stroke="midnightblue" d="M24.73,-190.21C31.47,-171.2 48.8,-129.04 77,-105 78.97,-103.32 81.11,-101.77 83.36,-100.36"/>
<polygon fill="midnightblue" stroke="midnightblue" points="85.24,-103.32 92.41,-95.52 81.94,-97.15 85.24,-103.32"/>
</g>
<!-- Node6 -->
<g id="node6" class="node">
<title>Node6</title>
<g id="a_node6"><a xlink:href="sdb_8h.html#ae6e48bacc3e6a6757a4dc1fdf56f7855" target="_top" xlink:title="Decompresses LZ77 compressed data.">
<polygon fill="none" stroke="black" points="213,-209.5 213,-228.5 314,-228.5 314,-209.5 213,-209.5"/>
<text text-anchor="middle" x="263.5" y="-216.5" font-family="Helvetica,sans-Serif" font-size="10.00">lz77_decompress</text>
</a>
</g>
</g>
<!-- Node5&#45;&gt;Node6 -->
<g id="edge5" class="edge">
<title>Node5&#45;&gt;Node6</title>
<path fill="none" stroke="midnightblue" d="M158.52,-204.31C171.68,-206.17 187.55,-208.41 202.88,-210.58"/>
<polygon fill="midnightblue" stroke="midnightblue" points="202.45,-214.05 212.85,-211.99 203.43,-207.12 202.45,-214.05"/>
</g>
<!-- Node7 -->
<g id="node7" class="node">
<title>Node7</title>
<g id="a_node7"><a xlink:href="sdb_8h.html#a9a446288941fb71784a3a1cce823a689" target="_top" xlink:title="Decompresses RLE compressed data.">
<polygon fill="none" stroke="black" points="216.5,-171.5 216.5,-190.5 310.5,-190.5 310.5,-171.5 216.5,-171.5"/>
<text text-anchor="middle" x="263.5" y="-178.5" font-family="Helvetica,sans-Serif" font-size="10.00">rle_decompress</text>
</a>
</g>
</g>
<!-- Node5&#45;&gt;Node7 -->
<g id="edge6" class="edge">
<title>Node5&#45;&gt;Node7</title>
<path fill="none" stroke="midnightblue" d="M158.52,-195.69C172.64,-193.69 189.88,-191.26 206.23,-188.95"/>
<polygon fill="midnightblue" stroke="midnightblue" points="206.84,-192.4 216.25,-187.53 205.86,-185.47 206.84,-192.4"/>
</g>
<!-- Node10 -->
<g id="node10" class="node">
<title>Node10</title>
<g id="a_node10"><a xlink:href="sdb_8h.html#a80de05c92ea53a4c3f73991ae28c569d" target="_top" xlink:title="Finds a table in the database.">
<polygon fill="none" stroke="black" points="220,-114.5 220,-133.5 307,-133.5 307,-114.5 220,-114.5"/>
<text text-anchor="middle" x="263.5" y="-121.5" font-family="Helvetica,sans-Serif" font-size="10.00">sdb_table_find</text>
</a>
</g>
</g>
<!-- Node9&#45;&gt;Node10 -->
<g id="edge9" class="edge">
<title>Node9&#45;&gt;Node10</title>
<path fill="none" stroke="midnightblue" d="M169.82,-124C182.35,-124 196.27,-124 209.43,-124"/>
<polygon fill="midnightblue" stroke="midnightblue" points="209.78,-127.5 219.78,-124 209.78,-120.5 209.78,-127.5"/>
</g>
<!-- Node11&#45;&gt;Node10 -->
<g id="edge16" class="edge">
<title>Node11&#45;&gt;Node10</title>
<path fill="none" stroke="midnightblue" d="M161.94,-95.59C179.22,-100.47 200.43,-106.46 218.91,-111.68"/>
<polygon fill="midnightblue" stroke="midnightblue" points="218,-115.06 228.57,-114.41 219.9,-108.33 218,-115.06"/>
</g>
<!-- Node12 -->
<g id="node12" class="node">
<title>Node12</title>
<g id="a_node12"><a xlink:href="sdb_8h.html#a1880aa13e614310d0e2022880bbbec14" target="_top" xlink:title=" ">
<polygon fill="none" stroke="black" points="227,-76.5 227,-95.5 300,-95.5 300,-76.5 227,-76.5"/>
<text text-anchor="middle" x="263.5" y="-83.5" font-family="Helvetica,sans-Serif" font-size="10.00">hash_string</text>
</a>
</g>
</g>
<!-- Node11&#45;&gt;Node12 -->
<g id="edge11" class="edge">
<title>Node11&#45;&gt;Node12</title>
<path fill="none" stroke="midnightblue" d="M169.09,-86C184.02,-86 201,-86 216.35,-86"/>
<polygon fill="midnightblue" stroke="midnightblue" points="216.67,-89.5 226.67,-86 216.67,-82.5 216.67,-89.5"/>
</g>
<!-- Node13 -->
<g id="node13" class="node">
<title>Node13</title>
<g id="a_node13"><a xlink:href="sdb_8h.html#a606f05f11750d966b89fccda2a42d7a3" target="_top" xlink:title="Saves the database.">
<polygon fill="none" stroke="black" points="232.5,-38.5 232.5,-57.5 294.5,-57.5 294.5,-38.5 232.5,-38.5"/>
<text text-anchor="middle" x="263.5" y="-45.5" font-family="Helvetica,sans-Serif" font-size="10.00">sdb_save</text>
</a>
</g>
</g>
<!-- Node11&#45;&gt;Node13 -->
<g id="edge12" class="edge">
<title>Node11&#45;&gt;Node13</title>
<path fill="none" stroke="midnightblue" d="M161.94,-76.41C180.36,-71.21 203.25,-64.74 222.53,-59.29"/>
<polygon fill="midnightblue" stroke="midnightblue" points="223.57,-62.64 232.24,-56.55 221.67,-55.9 223.57,-62.64"/>
</g>
<!-- Node14 -->
<g id="node14" class="node">
<title>Node14</title>
<g id="a_node14"><a xlink:href="sdb_8h.html#a06e5ec38763006ac3698d3232a70c37e" target="_top" xlink:title="Compresses data using LZ77&#45;style compression.">
<polygon fill="none" stroke="black" points="350.5,-76.5 350.5,-95.5 439.5,-95.5 439.5,-76.5 350.5,-76.5"/>
<text text-anchor="middle" x="395" y="-83.5" font-family="Helvetica,sans-Serif" font-size="10.00">lz77_compress</text>
</a>
</g>
</g>
<!-- Node13&#45;&gt;Node14 -->
<g id="edge13" class="edge">
<title>Node13&#45;&gt;Node14</title>
<path fill="none" stroke="midnightblue" d="M294.54,-56.81C311.51,-61.79 333,-68.1 351.66,-73.58"/>
<polygon fill="midnightblue" stroke="midnightblue" points="350.82,-76.98 361.41,-76.44 352.8,-70.26 350.82,-76.98"/>
</g>
<!-- Node15 -->
<g id="node15" class="node">
<title>Node15</title>
<g id="a_node15"><a xlink:href="sdb_8h.html#aa5ac13dd5ce8b589b99fb8d55591455c" target="_top" xlink:title="Compresses data using run&#45;length encoding.">
<polygon fill="none" stroke="black" points="354,-38.5 354,-57.5 436,-57.5 436,-38.5 354,-38.5"/>
<text text-anchor="middle" x="395" y="-45.5" font-family="Helvetica,sans-Serif" font-size="10.00">rle_compress</text>
</a>
</g>
</g>
<!-- Node13&#45;&gt;Node15 -->
<g id="edge14" class="edge">
<title>Node13&#45;&gt;Node15</title>
<path fill="none" stroke="midnightblue" d="M294.54,-48C309.14,-48 327.09,-48 343.7,-48"/>
<polygon fill="midnightblue" stroke="midnightblue" points="343.82,-51.5 353.82,-48 343.82,-44.5 343.82,-51.5"/>
</g>
<!-- Node16 -->
<g id="node16" class="node">
<title>Node16</title>
<g id="a_node16"><a xlink:href="sdb_8h.html#a0c179ece8c7ce27666738d126d88cf9f" target="_top" xlink:title="Helper function to write data to a buffer with automatic resizing.">
<polygon fill="none" stroke="black" points="350,-0.5 350,-19.5 440,-19.5 440,-0.5 350,-0.5"/>
<text text-anchor="middle" x="395" y="-7.5" font-family="Helvetica,sans-Serif" font-size="10.00">write_to_buffer</text>
</a>
</g>
</g>
<!-- Node13&#45;&gt;Node16 -->
<g id="edge15" class="edge">
<title>Node13&#45;&gt;Node16</title>
<path fill="none" stroke="midnightblue" d="M294.54,-39.19C311.51,-34.21 333,-27.9 351.66,-22.42"/>
<polygon fill="midnightblue" stroke="midnightblue" points="352.8,-25.74 361.41,-19.56 350.82,-19.02 352.8,-25.74"/>
</g>
</g>
</svg>
