<?xml version="1.0" encoding="UTF-8" standalone="no"?>
<!DOCTYPE svg PUBLIC "-//W3C//DTD SVG 1.1//EN"
 "http://www.w3.org/Graphics/SVG/1.1/DTD/svg11.dtd">
<!-- Generated by graphviz version 2.43.0 (0)
 -->
<!-- Title: main Pages: 1 -->
<svg width="448pt" height="323pt"
 viewBox="0.00 0.00 448.00 323.00" xmlns="http://www.w3.org/2000/svg" xmlns:xlink="http://www.w3.org/1999/xlink">
<g id="graph0" class="graph" transform="scale(1 1) rotate(0) translate(4 319)">
<title>main</title>
<!-- Node1 -->
<g id="Node000001" class="node">
<title>Node1</title>
<g id="a_Node000001"><a xlink:title=" ">
<polygon fill="#999999" stroke="#666666" points="41,-204 0,-204 0,-185 41,-185 41,-204"/>
<text text-anchor="middle" x="20.5" y="-192" font-family="Helvetica,sans-Serif" font-size="10.00">main</text>
</a>
</g>
</g>
<!-- Node2 -->
<g id="Node000002" class="node">
<title>Node2</title>
<g id="a_Node000002"><a xlink:href="sdb_8h.html#a2743f688b5146ccdfbac2a01ff8e5879" target="_top" xlink:title="Closes the database.">
<polygon fill="white" stroke="#666666" points="159.5,-315 94.5,-315 94.5,-296 159.5,-296 159.5,-315"/>
<text text-anchor="middle" x="127" y="-303" font-family="Helvetica,sans-Serif" font-size="10.00">sdb_close</text>
</a>
</g>
</g>
<!-- Node1&#45;&gt;Node2 -->
<g id="edge1_Node000001_Node000002" class="edge">
<title>Node1&#45;&gt;Node2</title>
<g id="a_edge1_Node000001_Node000002"><a xlink:title=" ">
<path fill="none" stroke="#63b8ff" d="M24.75,-204.12C31.53,-222.81 48.92,-264.21 77,-287.5 79.55,-289.61 82.36,-291.49 85.32,-293.15"/>
<polygon fill="#63b8ff" stroke="#63b8ff" points="83.96,-296.38 94.49,-297.53 86.97,-290.06 83.96,-296.38"/>
</a>
</g>
</g>
<!-- Node3 -->
<g id="Node000003" class="node">
<title>Node3</title>
<g id="a_Node000003"><a xlink:href="sdb_8h.html#a523c4c4709d3040e7045c4cc0da47d50" target="_top" xlink:title=" ">
<polygon fill="white" stroke="#666666" points="168.5,-278 85.5,-278 85.5,-259 168.5,-259 168.5,-278"/>
<text text-anchor="middle" x="127" y="-266" font-family="Helvetica,sans-Serif" font-size="10.00">sdb_free_info</text>
</a>
</g>
</g>
<!-- Node1&#45;&gt;Node3 -->
<g id="edge2_Node000001_Node000003" class="edge">
<title>Node1&#45;&gt;Node3</title>
<g id="a_edge2_Node000001_Node000003"><a xlink:title=" ">
<path fill="none" stroke="#63b8ff" d="M28.77,-204.09C38.52,-216.38 56.96,-237.63 77,-250.5 79.31,-251.99 81.77,-253.37 84.3,-254.67"/>
<polygon fill="#63b8ff" stroke="#63b8ff" points="83.11,-257.97 93.67,-258.92 86.01,-251.6 83.11,-257.97"/>
</a>
</g>
</g>
<!-- Node4 -->
<g id="Node000004" class="node">
<title>Node4</title>
<g id="a_Node000004"><a xlink:href="sdb_8h.html#a19d24c836d2eca10ac56d2a2e39a1789" target="_top" xlink:title=" ">
<polygon fill="white" stroke="#666666" points="156,-241 98,-241 98,-222 156,-222 156,-241"/>
<text text-anchor="middle" x="127" y="-229" font-family="Helvetica,sans-Serif" font-size="10.00">sdb_info</text>
</a>
</g>
</g>
<!-- Node1&#45;&gt;Node4 -->
<g id="edge3_Node000001_Node000004" class="edge">
<title>Node1&#45;&gt;Node4</title>
<g id="a_edge3_Node000001_Node000004"><a xlink:title=" ">
<path fill="none" stroke="#63b8ff" d="M41.16,-201.46C54.67,-206.24 73.03,-212.74 89.21,-218.47"/>
<polygon fill="#63b8ff" stroke="#63b8ff" points="88.35,-221.88 98.94,-221.92 90.68,-215.28 88.35,-221.88"/>
</a>
</g>
</g>
<!-- Node5 -->
<g id="Node000005" class="node">
<title>Node5</title>
<g id="a_Node000005"><a xlink:href="sdb_8h.html#aac1c4fc7402cd7ac2cb2e9ec6cb0f71a" target="_top" xlink:title="Opens a database file.">
<polygon fill="white" stroke="#666666" points="158.5,-204 95.5,-204 95.5,-185 158.5,-185 158.5,-204"/>
<text text-anchor="middle" x="127" y="-192" font-family="Helvetica,sans-Serif" font-size="10.00">sdb_open</text>
</a>
</g>
</g>
<!-- Node1&#45;&gt;Node5 -->
<g id="edge4_Node000001_Node000005" class="edge">
<title>Node1&#45;&gt;Node5</title>
<g id="a_edge4_Node000001_Node000005"><a xlink:title=" ">
<path fill="none" stroke="#63b8ff" d="M41.16,-194.5C53.55,-194.5 70.02,-194.5 85.14,-194.5"/>
<polygon fill="#63b8ff" stroke="#63b8ff" points="85.34,-198 95.34,-194.5 85.34,-191 85.34,-198"/>
</a>
</g>
</g>
<!-- Node8 -->
<g id="Node000008" class="node">
<title>Node8</title>
<g id="a_Node000008"><a xlink:href="sdb_8h.html#a701b4155247ba539ce535ebbf7eb69d0" target="_top" xlink:title="Creates a table in the database.">
<polygon fill="white" stroke="#666666" points="177,-167 77,-167 77,-148 177,-148 177,-167"/>
<text text-anchor="middle" x="127" y="-155" font-family="Helvetica,sans-Serif" font-size="10.00">sdb_table_create</text>
</a>
</g>
</g>
<!-- Node1&#45;&gt;Node8 -->
<g id="edge7_Node000001_Node000008" class="edge">
<title>Node1&#45;&gt;Node8</title>
<g id="a_edge7_Node000001_Node000008"><a xlink:title=" ">
<path fill="none" stroke="#63b8ff" d="M41.16,-187.54C54.67,-182.76 73.03,-176.26 89.21,-170.53"/>
<polygon fill="#63b8ff" stroke="#63b8ff" points="90.68,-173.72 98.94,-167.08 88.35,-167.12 90.68,-173.72"/>
</a>
</g>
</g>
<!-- Node9 -->
<g id="Node000009" class="node">
<title>Node9</title>
<g id="a_Node000009"><a xlink:href="sdb_8h.html#a9430c2398f7ae969d665981dfe8d9291" target="_top" xlink:title="Gets a value from the database.">
<polygon fill="white" stroke="#666666" points="169.5,-130 84.5,-130 84.5,-111 169.5,-111 169.5,-130"/>
<text text-anchor="middle" x="127" y="-118" font-family="Helvetica,sans-Serif" font-size="10.00">sdb_table_get</text>
</a>
</g>
</g>
<!-- Node1&#45;&gt;Node9 -->
<g id="edge8_Node000001_Node000009" class="edge">
<title>Node1&#45;&gt;Node9</title>
<g id="a_edge8_Node000001_Node000009"><a xlink:title=" ">
<path fill="none" stroke="#63b8ff" d="M29.18,-184.72C39.1,-172.66 57.42,-152.2 77,-139.5 79.92,-137.61 83.06,-135.85 86.29,-134.24"/>
<polygon fill="#63b8ff" stroke="#63b8ff" points="87.83,-137.39 95.51,-130.08 84.95,-131.01 87.83,-137.39"/>
</a>
</g>
</g>
<!-- Node11 -->
<g id="Node000011" class="node">
<title>Node11</title>
<g id="a_Node000011"><a xlink:href="sdb_8h.html#a59a73b6989beba1f08df6a9d1ec9e8ae" target="_top" xlink:title="Sets a value in the database.">
<polygon fill="white" stroke="#666666" points="169,-93 85,-93 85,-74 169,-74 169,-93"/>
<text text-anchor="middle" x="127" y="-81" font-family="Helvetica,sans-Serif" font-size="10.00">sdb_table_set</text>
</a>
</g>
</g>
<!-- Node1&#45;&gt;Node11 -->
<g id="edge10_Node000001_Node000011" class="edge">
<title>Node1&#45;&gt;Node11</title>
<g id="a_edge10_Node000001_Node000011"><a xlink:title=" ">
<path fill="none" stroke="#63b8ff" d="M24.92,-184.74C31.89,-166.19 49.44,-125.66 77,-102.5 78.99,-100.83 81.14,-99.3 83.39,-97.89"/>
<polygon fill="#63b8ff" stroke="#63b8ff" points="85.27,-100.86 92.45,-93.07 81.98,-94.68 85.27,-100.86"/>
</a>
</g>
</g>
<!-- Node6 -->
<g id="Node000006" class="node">
<title>Node6</title>
<g id="a_Node000006"><a xlink:href="sdb_8h.html#acbe8f7c7619d4101a890840dba09f51e" target="_top" xlink:title="Decompresses LZ77 compressed data.">
<polygon fill="white" stroke="#666666" points="314,-222 213,-222 213,-203 314,-203 314,-222"/>
<text text-anchor="middle" x="263.5" y="-210" font-family="Helvetica,sans-Serif" font-size="10.00">lz77_decompress</text>
</a>
</g>
</g>
<!-- Node5&#45;&gt;Node6 -->
<g id="edge5_Node000005_Node000006" class="edge">
<title>Node5&#45;&gt;Node6</title>
<g id="a_edge5_Node000005_Node000006"><a xlink:title=" ">
<path fill="none" stroke="#63b8ff" d="M158.52,-198.58C171.68,-200.35 187.55,-202.47 202.88,-204.52"/>
<polygon fill="#63b8ff" stroke="#63b8ff" points="202.47,-208 212.85,-205.85 203.4,-201.06 202.47,-208"/>
</a>
</g>
</g>
<!-- Node7 -->
<g id="Node000007" class="node">
<title>Node7</title>
<g id="a_Node000007"><a xlink:href="sdb_8h.html#a7bfe6125c6eb8480f7d0321ff97be8f3" target="_top" xlink:title="Decompresses RLE compressed data.">
<polygon fill="white" stroke="#666666" points="310.5,-185 216.5,-185 216.5,-166 310.5,-166 310.5,-185"/>
<text text-anchor="middle" x="263.5" y="-173" font-family="Helvetica,sans-Serif" font-size="10.00">rle_decompress</text>
</a>
</g>
</g>
<!-- Node5&#45;&gt;Node7 -->
<g id="edge6_Node000005_Node000007" class="edge">
<title>Node5&#45;&gt;Node7</title>
<g id="a_edge6_Node000005_Node000007"><a xlink:title=" ">
<path fill="none" stroke="#63b8ff" d="M158.52,-190.19C172.64,-188.19 189.88,-185.76 206.23,-183.45"/>
<polygon fill="#63b8ff" stroke="#63b8ff" points="206.84,-186.9 216.25,-182.03 205.86,-179.97 206.84,-186.9"/>
</a>
</g>
</g>
<!-- Node10 -->
<g id="Node000010" class="node">
<title>Node10</title>
<g id="a_Node000010"><a xlink:href="sdb_8h.html#a944d00b3fab98ff2ca74e75af155285d" target="_top" xlink:title="Finds a table in the database.">
<polygon fill="white" stroke="#666666" points="307,-130 220,-130 220,-111 307,-111 307,-130"/>
<text text-anchor="middle" x="263.5" y="-118" font-family="Helvetica,sans-Serif" font-size="10.00">sdb_table_find</text>
</a>
</g>
</g>
<!-- Node9&#45;&gt;Node10 -->
<g id="edge9_Node000009_Node000010" class="edge">
<title>Node9&#45;&gt;Node10</title>
<g id="a_edge9_Node000009_Node000010"><a xlink:title=" ">
<path fill="none" stroke="#63b8ff" d="M169.82,-120.5C182.35,-120.5 196.27,-120.5 209.43,-120.5"/>
<polygon fill="#63b8ff" stroke="#63b8ff" points="209.78,-124 219.78,-120.5 209.78,-117 209.78,-124"/>
</a>
</g>
</g>
<!-- Node11&#45;&gt;Node10 -->
<g id="edge16_Node000011_Node000010" class="edge">
<title>Node11&#45;&gt;Node10</title>
<g id="a_edge16_Node000011_Node000010"><a xlink:title=" ">
<path fill="none" stroke="#63b8ff" d="M162.64,-93.03C179.45,-97.65 199.85,-103.27 217.82,-108.21"/>
<polygon fill="#63b8ff" stroke="#63b8ff" points="216.94,-111.6 227.51,-110.88 218.8,-104.85 216.94,-111.6"/>
</a>
</g>
</g>
<!-- Node12 -->
<g id="Node000012" class="node">
<title>Node12</title>
<g id="a_Node000012"><a xlink:href="sdb_8h.html#a1880aa13e614310d0e2022880bbbec14" target="_top" xlink:title=" ">
<polygon fill="white" stroke="#666666" points="300,-93 227,-93 227,-74 300,-74 300,-93"/>
<text text-anchor="middle" x="263.5" y="-81" font-family="Helvetica,sans-Serif" font-size="10.00">hash_string</text>
</a>
</g>
</g>
<!-- Node11&#45;&gt;Node12 -->
<g id="edge11_Node000011_Node000012" class="edge">
<title>Node11&#45;&gt;Node12</title>
<g id="a_edge11_Node000011_Node000012"><a xlink:title=" ">
<path fill="none" stroke="#63b8ff" d="M169.09,-83.5C184.02,-83.5 201,-83.5 216.35,-83.5"/>
<polygon fill="#63b8ff" stroke="#63b8ff" points="216.67,-87 226.67,-83.5 216.67,-80 216.67,-87"/>
</a>
</g>
</g>
<!-- Node13 -->
<g id="Node000013" class="node">
<title>Node13</title>
<g id="a_Node000013"><a xlink:href="sdb_8h.html#a606f05f11750d966b89fccda2a42d7a3" target="_top" xlink:title="Saves the database.">
<polygon fill="white" stroke="#666666" points="294.5,-56 232.5,-56 232.5,-37 294.5,-37 294.5,-56"/>
<text text-anchor="middle" x="263.5" y="-44" font-family="Helvetica,sans-Serif" font-size="10.00">sdb_save</text>
</a>
</g>
</g>
<!-- Node11&#45;&gt;Node13 -->
<g id="edge12_Node000011_Node000013" class="edge">
<title>Node11&#45;&gt;Node13</title>
<g id="a_edge12_Node000011_Node000013"><a xlink:title=" ">
<path fill="none" stroke="#63b8ff" d="M162.64,-73.97C180.85,-68.96 203.27,-62.79 222.25,-57.57"/>
<polygon fill="#63b8ff" stroke="#63b8ff" points="223.39,-60.89 232.1,-54.86 221.53,-54.14 223.39,-60.89"/>
</a>
</g>
</g>
<!-- Node14 -->
<g id="Node000014" class="node">
<title>Node14</title>
<g id="a_Node000014"><a xlink:href="sdb_8h.html#a41dc88ab89048875a54bfc7bd008ae3b" target="_top" xlink:title="Compresses data using LZ77&#45;style compression.">
<polygon fill="white" stroke="#666666" points="439.5,-93 350.5,-93 350.5,-74 439.5,-74 439.5,-93"/>
<text text-anchor="middle" x="395" y="-81" font-family="Helvetica,sans-Serif" font-size="10.00">lz77_compress</text>
</a>
</g>
</g>
<!-- Node13&#45;&gt;Node14 -->
<g id="edge13_Node000013_Node000014" class="edge">
<title>Node13&#45;&gt;Node14</title>
<g id="a_edge13_Node000013_Node000014"><a xlink:title=" ">
<path fill="none" stroke="#63b8ff" d="M294.54,-55.08C311.26,-59.86 332.36,-65.89 350.82,-71.16"/>
<polygon fill="#63b8ff" stroke="#63b8ff" points="349.91,-74.54 360.48,-73.92 351.83,-67.81 349.91,-74.54"/>
</a>
</g>
</g>
<!-- Node15 -->
<g id="Node000015" class="node">
<title>Node15</title>
<g id="a_Node000015"><a xlink:href="sdb_8h.html#a353b821ac4af680892de5414e7c6c2b5" target="_top" xlink:title="Compresses data using run&#45;length encoding.">
<polygon fill="white" stroke="#666666" points="436,-56 354,-56 354,-37 436,-37 436,-56"/>
<text text-anchor="middle" x="395" y="-44" font-family="Helvetica,sans-Serif" font-size="10.00">rle_compress</text>
</a>
</g>
</g>
<!-- Node13&#45;&gt;Node15 -->
<g id="edge14_Node000013_Node000015" class="edge">
<title>Node13&#45;&gt;Node15</title>
<g id="a_edge14_Node000013_Node000015"><a xlink:title=" ">
<path fill="none" stroke="#63b8ff" d="M294.54,-46.5C309.14,-46.5 327.09,-46.5 343.7,-46.5"/>
<polygon fill="#63b8ff" stroke="#63b8ff" points="343.82,-50 353.82,-46.5 343.82,-43 343.82,-50"/>
</a>
</g>
</g>
<!-- Node16 -->
<g id="Node000016" class="node">
<title>Node16</title>
<g id="a_Node000016"><a xlink:href="sdb_8h.html#a0c179ece8c7ce27666738d126d88cf9f" target="_top" xlink:title="Helper function to write data to a buffer with automatic resizing.">
<polygon fill="white" stroke="#666666" points="440,-19 350,-19 350,0 440,0 440,-19"/>
<text text-anchor="middle" x="395" y="-7" font-family="Helvetica,sans-Serif" font-size="10.00">write_to_buffer</text>
</a>
</g>
</g>
<!-- Node13&#45;&gt;Node16 -->
<g id="edge15_Node000013_Node000016" class="edge">
<title>Node13&#45;&gt;Node16</title>
<g id="a_edge15_Node000013_Node000016"><a xlink:title=" ">
<path fill="none" stroke="#63b8ff" d="M294.54,-37.92C311.26,-33.14 332.36,-27.11 350.82,-21.84"/>
<polygon fill="#63b8ff" stroke="#63b8ff" points="351.83,-25.19 360.48,-19.08 349.91,-18.46 351.83,-25.19"/>
</a>
</g>
</g>
</g>
</svg>
