<?xml version="1.0" encoding="UTF-8" standalone="no"?>
<!DOCTYPE svg PUBLIC "-//W3C//DTD SVG 1.1//EN"
 "http://www.w3.org/Graphics/SVG/1.1/DTD/svg11.dtd">
<!-- Generated by graphviz version 2.43.0 (0)
 -->
<!-- Title: sdb_batch_execute Pages: 1 -->
<svg width="487pt" height="138pt"
 viewBox="0.00 0.00 487.00 138.00" xmlns="http://www.w3.org/2000/svg" xmlns:xlink="http://www.w3.org/1999/xlink">

<svg id="main" version="1.1" xmlns="http://www.w3.org/2000/svg" xmlns:xlink="http://www.w3.org/1999/xlink" xml:space="preserve" onload="init(evt)">
<style type="text/css"><![CDATA[
.node, .edge {opacity: 0.7;}
.node.selected, .edge.selected {opacity: 1;}
.edge:hover path { stroke: red; }
.edge:hover polygon { stroke: red; fill: red; }
]]></style>
<script type="application/ecmascript" xlink:href="svg.min.js"/>
<svg id="graph" class="graph">
<g id="graph0" class="graph" transform="scale(1 1) rotate(0) translate(4 134)">
<title>sdb_batch_execute</title>
<!-- Node1 -->
<g id="Node000001" class="node">
<title>Node1</title>
<g id="a_Node000001"><a xlink:title=" ">
<polygon fill="#999999" stroke="#666666" points="110,-74 0,-74 0,-55 110,-55 110,-74"/>
<text text-anchor="middle" x="55" y="-62" font-family="Helvetica,sans-Serif" font-size="10.00">sdb_batch_execute</text>
</a>
</g>
</g>
<!-- Node2 -->
<g id="Node000002" class="node">
<title>Node2</title>
<g id="a_Node000002"><a xlink:href="sdb_8h.html#a606f05f11750d966b89fccda2a42d7a3" target="_top" xlink:title="Saves the database.">
<polygon fill="white" stroke="#666666" points="340.5,-93 278.5,-93 278.5,-74 340.5,-74 340.5,-93"/>
<text text-anchor="middle" x="309.5" y="-81" font-family="Helvetica,sans-Serif" font-size="10.00">sdb_save</text>
</a>
</g>
</g>
<!-- Node1&#45;&gt;Node2 -->
<g id="edge1_Node000001_Node000002" class="edge">
<title>Node1&#45;&gt;Node2</title>
<g id="a_edge1_Node000001_Node000002"><a xlink:title=" ">
<path fill="none" stroke="#63b8ff" d="M110.17,-68.58C157.56,-72.14 225.33,-77.24 268.1,-80.46"/>
<polygon fill="#63b8ff" stroke="#63b8ff" points="267.92,-83.96 278.15,-81.22 268.44,-76.98 267.92,-83.96"/>
</a>
</g>
</g>
<!-- Node6 -->
<g id="Node000006" class="node">
<title>Node6</title>
<g id="a_Node000006"><a xlink:href="sdb_8h.html#a59a73b6989beba1f08df6a9d1ec9e8ae" target="_top" xlink:title="Sets a value in the database.">
<polygon fill="white" stroke="#666666" points="230,-55 146,-55 146,-36 230,-36 230,-55"/>
<text text-anchor="middle" x="188" y="-43" font-family="Helvetica,sans-Serif" font-size="10.00">sdb_table_set</text>
</a>
</g>
</g>
<!-- Node1&#45;&gt;Node6 -->
<g id="edge5_Node000001_Node000006" class="edge">
<title>Node1&#45;&gt;Node6</title>
<g id="a_edge5_Node000001_Node000006"><a xlink:title=" ">
<path fill="none" stroke="#63b8ff" d="M110.04,-56.66C118.56,-55.43 127.34,-54.15 135.79,-52.93"/>
<polygon fill="#63b8ff" stroke="#63b8ff" points="136.5,-56.36 145.9,-51.46 135.5,-49.43 136.5,-56.36"/>
</a>
</g>
</g>
<!-- Node3 -->
<g id="Node000003" class="node">
<title>Node3</title>
<g id="a_Node000003"><a xlink:href="sdb_8h.html#a41dc88ab89048875a54bfc7bd008ae3b" target="_top" xlink:title="Compresses data using LZ77&#45;style compression.">
<polygon fill="white" stroke="#666666" points="478.5,-130 389.5,-130 389.5,-111 478.5,-111 478.5,-130"/>
<text text-anchor="middle" x="434" y="-118" font-family="Helvetica,sans-Serif" font-size="10.00">lz77_compress</text>
</a>
</g>
</g>
<!-- Node2&#45;&gt;Node3 -->
<g id="edge2_Node000002_Node000003" class="edge">
<title>Node2&#45;&gt;Node3</title>
<g id="a_edge2_Node000002_Node000003"><a xlink:title=" ">
<path fill="none" stroke="#63b8ff" d="M340.78,-92.65C356.04,-97.25 374.77,-102.91 391.36,-107.92"/>
<polygon fill="#63b8ff" stroke="#63b8ff" points="390.77,-111.4 401.36,-110.94 392.8,-104.7 390.77,-111.4"/>
</a>
</g>
</g>
<!-- Node4 -->
<g id="Node000004" class="node">
<title>Node4</title>
<g id="a_Node000004"><a xlink:href="sdb_8h.html#a353b821ac4af680892de5414e7c6c2b5" target="_top" xlink:title="Compresses data using run&#45;length encoding.">
<polygon fill="white" stroke="#666666" points="475,-93 393,-93 393,-74 475,-74 475,-93"/>
<text text-anchor="middle" x="434" y="-81" font-family="Helvetica,sans-Serif" font-size="10.00">rle_compress</text>
</a>
</g>
</g>
<!-- Node2&#45;&gt;Node4 -->
<g id="edge3_Node000002_Node000004" class="edge">
<title>Node2&#45;&gt;Node4</title>
<g id="a_edge3_Node000002_Node000004"><a xlink:title=" ">
<path fill="none" stroke="#63b8ff" d="M340.78,-83.5C353.44,-83.5 368.49,-83.5 382.72,-83.5"/>
<polygon fill="#63b8ff" stroke="#63b8ff" points="382.9,-87 392.9,-83.5 382.9,-80 382.9,-87"/>
</a>
</g>
</g>
<!-- Node5 -->
<g id="Node000005" class="node">
<title>Node5</title>
<g id="a_Node000005"><a xlink:href="sdb_8h.html#a0c179ece8c7ce27666738d126d88cf9f" target="_top" xlink:title="Helper function to write data to a buffer with automatic resizing.">
<polygon fill="white" stroke="#666666" points="479,-56 389,-56 389,-37 479,-37 479,-56"/>
<text text-anchor="middle" x="434" y="-44" font-family="Helvetica,sans-Serif" font-size="10.00">write_to_buffer</text>
</a>
</g>
</g>
<!-- Node2&#45;&gt;Node5 -->
<g id="edge4_Node000002_Node000005" class="edge">
<title>Node2&#45;&gt;Node5</title>
<g id="a_edge4_Node000002_Node000005"><a xlink:title=" ">
<path fill="none" stroke="#63b8ff" d="M340.78,-74.35C356.04,-69.75 374.77,-64.09 391.36,-59.08"/>
<polygon fill="#63b8ff" stroke="#63b8ff" points="392.8,-62.3 401.36,-56.06 390.77,-55.6 392.8,-62.3"/>
</a>
</g>
</g>
<!-- Node6&#45;&gt;Node2 -->
<g id="edge7_Node000006_Node000002" class="edge">
<title>Node6&#45;&gt;Node2</title>
<g id="a_edge7_Node000006_Node000002"><a xlink:title=" ">
<path fill="none" stroke="#63b8ff" d="M219.15,-55.09C234.16,-59.86 252.49,-65.69 268.63,-70.82"/>
<polygon fill="#63b8ff" stroke="#63b8ff" points="267.76,-74.22 278.35,-73.91 269.89,-67.55 267.76,-74.22"/>
</a>
</g>
</g>
<!-- Node7 -->
<g id="Node000007" class="node">
<title>Node7</title>
<g id="a_Node000007"><a xlink:href="sdb_8h.html#a1880aa13e614310d0e2022880bbbec14" target="_top" xlink:title=" ">
<polygon fill="white" stroke="#666666" points="346,-56 273,-56 273,-37 346,-37 346,-56"/>
<text text-anchor="middle" x="309.5" y="-44" font-family="Helvetica,sans-Serif" font-size="10.00">hash_string</text>
</a>
</g>
</g>
<!-- Node6&#45;&gt;Node7 -->
<g id="edge6_Node000006_Node000007" class="edge">
<title>Node6&#45;&gt;Node7</title>
<g id="a_edge6_Node000006_Node000007"><a xlink:title=" ">
<path fill="none" stroke="#63b8ff" d="M230.13,-45.84C240.66,-45.93 252.06,-46.03 262.82,-46.12"/>
<polygon fill="#63b8ff" stroke="#63b8ff" points="262.85,-49.62 272.88,-46.2 262.91,-42.62 262.85,-49.62"/>
</a>
</g>
</g>
<!-- Node8 -->
<g id="Node000008" class="node">
<title>Node8</title>
<g id="a_Node000008"><a xlink:href="sdb_8h.html#a944d00b3fab98ff2ca74e75af155285d" target="_top" xlink:title="Finds a table in the database.">
<polygon fill="white" stroke="#666666" points="353,-19 266,-19 266,0 353,0 353,-19"/>
<text text-anchor="middle" x="309.5" y="-7" font-family="Helvetica,sans-Serif" font-size="10.00">sdb_table_find</text>
</a>
</g>
</g>
<!-- Node6&#45;&gt;Node8 -->
<g id="edge8_Node000006_Node000008" class="edge">
<title>Node6&#45;&gt;Node8</title>
<g id="a_edge8_Node000006_Node000008"><a xlink:title=" ">
<path fill="none" stroke="#63b8ff" d="M220.71,-35.95C234.89,-31.68 251.8,-26.58 266.97,-22.01"/>
<polygon fill="#63b8ff" stroke="#63b8ff" points="268.08,-25.33 276.64,-19.1 266.06,-18.63 268.08,-25.33"/>
</a>
</g>
</g>
</g>
</svg>
</svg>

<style type='text/css'>
<![CDATA[
[data-mouse-over-selected='false'] { opacity: 0.7; }
[data-mouse-over-selected='true']  { opacity: 1.0; }
]]>
</style>
<script type="application/ecmascript"><![CDATA[
document.addEventListener('DOMContentLoaded', (event) => {
  highlightEdges();
  highlightAdjacentNodes();
});
]]></script>
</svg>
