<?xml version="1.0" encoding="UTF-8" standalone="no"?>
<!DOCTYPE svg PUBLIC "-//W3C//DTD SVG 1.1//EN"
 "http://www.w3.org/Graphics/SVG/1.1/DTD/svg11.dtd">
<!-- Generated by graphviz version 2.43.0 (0)
 -->
<!-- Title: sdb_table_find Pages: 1 -->
<svg width="362pt" height="66pt"
 viewBox="0.00 0.00 362.00 66.00" xmlns="http://www.w3.org/2000/svg" xmlns:xlink="http://www.w3.org/1999/xlink">
<g id="graph0" class="graph" transform="scale(1 1) rotate(0) translate(4 62)">
<title>sdb_table_find</title>
<!-- Node1 -->
<g id="node1" class="node">
<title>Node1</title>
<g id="a_node1"><a xlink:title="Finds a table in the database.">
<polygon fill="#bfbfbf" stroke="black" points="267,-19.5 267,-38.5 354,-38.5 354,-19.5 267,-19.5"/>
<text text-anchor="middle" x="310.5" y="-26.5" font-family="Helvetica,sans-Serif" font-size="10.00">sdb_table_find</text>
</a>
</g>
</g>
<!-- Node2 -->
<g id="node2" class="node">
<title>Node2</title>
<g id="a_node2"><a xlink:href="sdb_8h.html#a33d06c83e2d45ba5fec0560fa933fec9" target="_top" xlink:title="Gets a value from the database.">
<polygon fill="none" stroke="black" points="146,-38.5 146,-57.5 231,-57.5 231,-38.5 146,-38.5"/>
<text text-anchor="middle" x="188.5" y="-45.5" font-family="Helvetica,sans-Serif" font-size="10.00">sdb_table_get</text>
</a>
</g>
</g>
<!-- Node1&#45;&gt;Node2 -->
<g id="edge1" class="edge">
<title>Node1&#45;&gt;Node2</title>
<path fill="none" stroke="midnightblue" d="M256.9,-37.33C248.3,-38.69 239.49,-40.08 231.2,-41.4"/>
<polygon fill="midnightblue" stroke="midnightblue" points="257.53,-40.77 266.85,-35.75 256.43,-33.86 257.53,-40.77"/>
</g>
<!-- Node4 -->
<g id="node4" class="node">
<title>Node4</title>
<g id="a_node4"><a xlink:href="sdb_8h.html#a59a73b6989beba1f08df6a9d1ec9e8ae" target="_top" xlink:title="Sets a value in the database.">
<polygon fill="none" stroke="black" points="146.5,-0.5 146.5,-19.5 230.5,-19.5 230.5,-0.5 146.5,-0.5"/>
<text text-anchor="middle" x="188.5" y="-7.5" font-family="Helvetica,sans-Serif" font-size="10.00">sdb_table_set</text>
</a>
</g>
</g>
<!-- Node1&#45;&gt;Node4 -->
<g id="edge3" class="edge">
<title>Node1&#45;&gt;Node4</title>
<path fill="none" stroke="midnightblue" d="M256.78,-20.65C248.08,-19.27 239.17,-17.86 230.8,-16.54"/>
<polygon fill="midnightblue" stroke="midnightblue" points="256.43,-24.14 266.85,-22.25 257.53,-17.23 256.43,-24.14"/>
</g>
<!-- Node3 -->
<g id="node3" class="node">
<title>Node3</title>
<g id="a_node3"><a xlink:href="main_8c.html#ae66f6b31b5ad750f1fe042a706a4e3d4" target="_top" xlink:title=" ">
<polygon fill="none" stroke="black" points="34.5,-38.5 34.5,-57.5 75.5,-57.5 75.5,-38.5 34.5,-38.5"/>
<text text-anchor="middle" x="55" y="-45.5" font-family="Helvetica,sans-Serif" font-size="10.00">main</text>
</a>
</g>
</g>
<!-- Node2&#45;&gt;Node3 -->
<g id="edge2" class="edge">
<title>Node2&#45;&gt;Node3</title>
<path fill="none" stroke="midnightblue" d="M135.75,-48C114.67,-48 91.57,-48 75.69,-48"/>
<polygon fill="midnightblue" stroke="midnightblue" points="135.89,-51.5 145.89,-48 135.89,-44.5 135.89,-51.5"/>
</g>
<!-- Node4&#45;&gt;Node3 -->
<g id="edge4" class="edge">
<title>Node4&#45;&gt;Node3</title>
<path fill="none" stroke="midnightblue" d="M144.67,-22.38C121.44,-29.09 93.84,-37.06 75.68,-42.31"/>
<polygon fill="midnightblue" stroke="midnightblue" points="145.68,-25.73 154.32,-19.59 143.74,-19 145.68,-25.73"/>
</g>
<!-- Node5 -->
<g id="node5" class="node">
<title>Node5</title>
<g id="a_node5"><a xlink:href="sdb_8h.html#a2a86f0ae8eaea9297bd3220f2a8ab869" target="_top" xlink:title=" ">
<polygon fill="none" stroke="black" points="0,-0.5 0,-19.5 110,-19.5 110,-0.5 0,-0.5"/>
<text text-anchor="middle" x="55" y="-7.5" font-family="Helvetica,sans-Serif" font-size="10.00">sdb_batch_execute</text>
</a>
</g>
</g>
<!-- Node4&#45;&gt;Node5 -->
<g id="edge5" class="edge">
<title>Node4&#45;&gt;Node5</title>
<path fill="none" stroke="midnightblue" d="M136.08,-10C127.56,-10 118.71,-10 110.13,-10"/>
<polygon fill="midnightblue" stroke="midnightblue" points="136.25,-13.5 146.25,-10 136.25,-6.5 136.25,-13.5"/>
</g>
</g>
</svg>
