<?xml version="1.0" encoding="UTF-8" standalone="no"?>
<!DOCTYPE svg PUBLIC "-//W3C//DTD SVG 1.1//EN"
 "http://www.w3.org/Graphics/SVG/1.1/DTD/svg11.dtd">
<!-- Generated by graphviz version 2.43.0 (0)
 -->
<!-- Title: sdb_save Pages: 1 -->
<svg width="196pt" height="104pt"
 viewBox="0.00 0.00 196.00 104.00" xmlns="http://www.w3.org/2000/svg" xmlns:xlink="http://www.w3.org/1999/xlink">
<g id="graph0" class="graph" transform="scale(1 1) rotate(0) translate(4 100)">
<title>sdb_save</title>
<!-- Node1 -->
<g id="node1" class="node">
<title>Node1</title>
<g id="a_node1"><a xlink:title="Saves the database.">
<polygon fill="#bfbfbf" stroke="black" points="0,-38.5 0,-57.5 62,-57.5 62,-38.5 0,-38.5"/>
<text text-anchor="middle" x="31" y="-45.5" font-family="Helvetica,sans-Serif" font-size="10.00">sdb_save</text>
</a>
</g>
</g>
<!-- Node2 -->
<g id="node2" class="node">
<title>Node2</title>
<g id="a_node2"><a xlink:href="sdb_8h.html#a06e5ec38763006ac3698d3232a70c37e" target="_top" xlink:title="Compresses data using LZ77&#45;style compression.">
<polygon fill="none" stroke="black" points="98.5,-76.5 98.5,-95.5 187.5,-95.5 187.5,-76.5 98.5,-76.5"/>
<text text-anchor="middle" x="143" y="-83.5" font-family="Helvetica,sans-Serif" font-size="10.00">lz77_compress</text>
</a>
</g>
</g>
<!-- Node1&#45;&gt;Node2 -->
<g id="edge1" class="edge">
<title>Node1&#45;&gt;Node2</title>
<path fill="none" stroke="midnightblue" d="M59.76,-57.59C73.31,-62.27 89.81,-67.97 104.46,-73.03"/>
<polygon fill="midnightblue" stroke="midnightblue" points="103.66,-76.46 114.25,-76.41 105.94,-69.84 103.66,-76.46"/>
</g>
<!-- Node3 -->
<g id="node3" class="node">
<title>Node3</title>
<g id="a_node3"><a xlink:href="sdb_8h.html#aa5ac13dd5ce8b589b99fb8d55591455c" target="_top" xlink:title="Compresses data using run&#45;length encoding.">
<polygon fill="none" stroke="black" points="102,-38.5 102,-57.5 184,-57.5 184,-38.5 102,-38.5"/>
<text text-anchor="middle" x="143" y="-45.5" font-family="Helvetica,sans-Serif" font-size="10.00">rle_compress</text>
</a>
</g>
</g>
<!-- Node1&#45;&gt;Node3 -->
<g id="edge2" class="edge">
<title>Node1&#45;&gt;Node3</title>
<path fill="none" stroke="midnightblue" d="M62.06,-48C71.12,-48 81.33,-48 91.35,-48"/>
<polygon fill="midnightblue" stroke="midnightblue" points="91.66,-51.5 101.66,-48 91.66,-44.5 91.66,-51.5"/>
</g>
<!-- Node4 -->
<g id="node4" class="node">
<title>Node4</title>
<g id="a_node4"><a xlink:href="sdb_8h.html#a0c179ece8c7ce27666738d126d88cf9f" target="_top" xlink:title="Helper function to write data to a buffer with automatic resizing.">
<polygon fill="none" stroke="black" points="98,-0.5 98,-19.5 188,-19.5 188,-0.5 98,-0.5"/>
<text text-anchor="middle" x="143" y="-7.5" font-family="Helvetica,sans-Serif" font-size="10.00">write_to_buffer</text>
</a>
</g>
</g>
<!-- Node1&#45;&gt;Node4 -->
<g id="edge3" class="edge">
<title>Node1&#45;&gt;Node4</title>
<path fill="none" stroke="midnightblue" d="M59.76,-38.41C73.31,-33.73 89.81,-28.03 104.46,-22.97"/>
<polygon fill="midnightblue" stroke="midnightblue" points="105.94,-26.16 114.25,-19.59 103.66,-19.54 105.94,-26.16"/>
</g>
</g>
</svg>
