<?xml version="1.0" encoding="UTF-8" standalone="no"?>
<!DOCTYPE svg PUBLIC "-//W3C//DTD SVG 1.1//EN"
 "http://www.w3.org/Graphics/SVG/1.1/DTD/svg11.dtd">
<!-- Generated by graphviz version 2.43.0 (0)
 -->
<!-- Title: sdb_table_set Pages: 1 -->
<svg width="341pt" height="101pt"
 viewBox="0.00 0.00 341.00 101.00" xmlns="http://www.w3.org/2000/svg" xmlns:xlink="http://www.w3.org/1999/xlink">

<svg id="main" version="1.1" xmlns="http://www.w3.org/2000/svg" xmlns:xlink="http://www.w3.org/1999/xlink" xml:space="preserve" onload="init(evt)">
<style type="text/css"><![CDATA[
.node, .edge {opacity: 0.7;}
.node.selected, .edge.selected {opacity: 1;}
.edge:hover path { stroke: red; }
.edge:hover polygon { stroke: red; fill: red; }
]]></style>
<script type="application/ecmascript" xlink:href="svg.min.js"/>
<svg id="graph" class="graph">
<g id="graph0" class="graph" transform="scale(1 1) rotate(0) translate(4 97)">
<title>sdb_table_set</title>
<!-- Node1 -->
<g id="Node000001" class="node">
<title>Node1</title>
<g id="a_Node000001"><a xlink:title="Sets a value in the database.">
<polygon fill="#999999" stroke="#666666" points="84,-56 0,-56 0,-37 84,-37 84,-56"/>
<text text-anchor="middle" x="42" y="-44" font-family="Helvetica,sans-Serif" font-size="10.00">sdb_table_set</text>
</a>
</g>
</g>
<!-- Node2 -->
<g id="Node000002" class="node">
<title>Node2</title>
<g id="a_Node000002"><a xlink:href="sdb_8h.html#a1880aa13e614310d0e2022880bbbec14" target="_top" xlink:title=" ">
<polygon fill="white" stroke="#666666" points="200,-93 127,-93 127,-74 200,-74 200,-93"/>
<text text-anchor="middle" x="163.5" y="-81" font-family="Helvetica,sans-Serif" font-size="10.00">hash_string</text>
</a>
</g>
</g>
<!-- Node1&#45;&gt;Node2 -->
<g id="edge1_Node000001_Node000002" class="edge">
<title>Node1&#45;&gt;Node2</title>
<g id="a_edge1_Node000001_Node000002"><a xlink:title=" ">
<path fill="none" stroke="#63b8ff" d="M73.77,-56.03C88.3,-60.52 105.83,-65.95 121.47,-70.8"/>
<polygon fill="#63b8ff" stroke="#63b8ff" points="120.83,-74.26 131.41,-73.88 122.9,-67.57 120.83,-74.26"/>
</a>
</g>
</g>
<!-- Node3 -->
<g id="Node000003" class="node">
<title>Node3</title>
<g id="a_Node000003"><a xlink:href="sdb_8h.html#a606f05f11750d966b89fccda2a42d7a3" target="_top" xlink:title="Saves the database.">
<polygon fill="white" stroke="#666666" points="194.5,-56 132.5,-56 132.5,-37 194.5,-37 194.5,-56"/>
<text text-anchor="middle" x="163.5" y="-44" font-family="Helvetica,sans-Serif" font-size="10.00">sdb_save</text>
</a>
</g>
</g>
<!-- Node1&#45;&gt;Node3 -->
<g id="edge2_Node000001_Node000003" class="edge">
<title>Node1&#45;&gt;Node3</title>
<g id="a_edge2_Node000001_Node000003"><a xlink:title=" ">
<path fill="none" stroke="#63b8ff" d="M84.13,-46.5C96.34,-46.5 109.72,-46.5 121.9,-46.5"/>
<polygon fill="#63b8ff" stroke="#63b8ff" points="122.25,-50 132.25,-46.5 122.25,-43 122.25,-50"/>
</a>
</g>
</g>
<!-- Node7 -->
<g id="Node000007" class="node">
<title>Node7</title>
<g id="a_Node000007"><a xlink:href="sdb_8h.html#a944d00b3fab98ff2ca74e75af155285d" target="_top" xlink:title="Finds a table in the database.">
<polygon fill="white" stroke="#666666" points="207,-19 120,-19 120,0 207,0 207,-19"/>
<text text-anchor="middle" x="163.5" y="-7" font-family="Helvetica,sans-Serif" font-size="10.00">sdb_table_find</text>
</a>
</g>
</g>
<!-- Node1&#45;&gt;Node7 -->
<g id="edge6_Node000001_Node000007" class="edge">
<title>Node1&#45;&gt;Node7</title>
<g id="a_edge6_Node000001_Node000007"><a xlink:title=" ">
<path fill="none" stroke="#63b8ff" d="M73.77,-36.97C88.3,-32.48 105.83,-27.05 121.47,-22.2"/>
<polygon fill="#63b8ff" stroke="#63b8ff" points="122.9,-25.43 131.41,-19.12 120.83,-18.74 122.9,-25.43"/>
</a>
</g>
</g>
<!-- Node4 -->
<g id="Node000004" class="node">
<title>Node4</title>
<g id="a_Node000004"><a xlink:href="sdb_8h.html#a41dc88ab89048875a54bfc7bd008ae3b" target="_top" xlink:title="Compresses data using LZ77&#45;style compression.">
<polygon fill="white" stroke="#666666" points="332.5,-93 243.5,-93 243.5,-74 332.5,-74 332.5,-93"/>
<text text-anchor="middle" x="288" y="-81" font-family="Helvetica,sans-Serif" font-size="10.00">lz77_compress</text>
</a>
</g>
</g>
<!-- Node3&#45;&gt;Node4 -->
<g id="edge3_Node000003_Node000004" class="edge">
<title>Node3&#45;&gt;Node4</title>
<g id="a_edge3_Node000003_Node000004"><a xlink:title=" ">
<path fill="none" stroke="#63b8ff" d="M194.78,-55.65C210.04,-60.25 228.77,-65.91 245.36,-70.92"/>
<polygon fill="#63b8ff" stroke="#63b8ff" points="244.77,-74.4 255.36,-73.94 246.8,-67.7 244.77,-74.4"/>
</a>
</g>
</g>
<!-- Node5 -->
<g id="Node000005" class="node">
<title>Node5</title>
<g id="a_Node000005"><a xlink:href="sdb_8h.html#a353b821ac4af680892de5414e7c6c2b5" target="_top" xlink:title="Compresses data using run&#45;length encoding.">
<polygon fill="white" stroke="#666666" points="329,-56 247,-56 247,-37 329,-37 329,-56"/>
<text text-anchor="middle" x="288" y="-44" font-family="Helvetica,sans-Serif" font-size="10.00">rle_compress</text>
</a>
</g>
</g>
<!-- Node3&#45;&gt;Node5 -->
<g id="edge4_Node000003_Node000005" class="edge">
<title>Node3&#45;&gt;Node5</title>
<g id="a_edge4_Node000003_Node000005"><a xlink:title=" ">
<path fill="none" stroke="#63b8ff" d="M194.78,-46.5C207.44,-46.5 222.49,-46.5 236.72,-46.5"/>
<polygon fill="#63b8ff" stroke="#63b8ff" points="236.9,-50 246.9,-46.5 236.9,-43 236.9,-50"/>
</a>
</g>
</g>
<!-- Node6 -->
<g id="Node000006" class="node">
<title>Node6</title>
<g id="a_Node000006"><a xlink:href="sdb_8h.html#a0c179ece8c7ce27666738d126d88cf9f" target="_top" xlink:title="Helper function to write data to a buffer with automatic resizing.">
<polygon fill="white" stroke="#666666" points="333,-19 243,-19 243,0 333,0 333,-19"/>
<text text-anchor="middle" x="288" y="-7" font-family="Helvetica,sans-Serif" font-size="10.00">write_to_buffer</text>
</a>
</g>
</g>
<!-- Node3&#45;&gt;Node6 -->
<g id="edge5_Node000003_Node000006" class="edge">
<title>Node3&#45;&gt;Node6</title>
<g id="a_edge5_Node000003_Node000006"><a xlink:title=" ">
<path fill="none" stroke="#63b8ff" d="M194.78,-37.35C210.04,-32.75 228.77,-27.09 245.36,-22.08"/>
<polygon fill="#63b8ff" stroke="#63b8ff" points="246.8,-25.3 255.36,-19.06 244.77,-18.6 246.8,-25.3"/>
</a>
</g>
</g>
</g>
</svg>
</svg>

<style type='text/css'>
<![CDATA[
[data-mouse-over-selected='false'] { opacity: 0.7; }
[data-mouse-over-selected='true']  { opacity: 1.0; }
]]>
</style>
<script type="application/ecmascript"><![CDATA[
document.addEventListener('DOMContentLoaded', (event) => {
  highlightEdges();
  highlightAdjacentNodes();
});
]]></script>
</svg>
