<?xml version="1.0" encoding="UTF-8" standalone="no"?>
<!DOCTYPE svg PUBLIC "-//W3C//DTD SVG 1.1//EN"
 "http://www.w3.org/Graphics/SVG/1.1/DTD/svg11.dtd">
<!-- Generated by graphviz version 2.43.0 (0)
 -->
<!-- Title: sdb_save Pages: 1 -->
<svg width="196pt" height="101pt"
 viewBox="0.00 0.00 196.00 101.00" xmlns="http://www.w3.org/2000/svg" xmlns:xlink="http://www.w3.org/1999/xlink">
<g id="graph0" class="graph" transform="scale(1 1) rotate(0) translate(4 97)">
<title>sdb_save</title>
<!-- Node1 -->
<g id="Node000001" class="node">
<title>Node1</title>
<g id="a_Node000001"><a xlink:title="Saves the database.">
<polygon fill="#999999" stroke="#666666" points="62,-56 0,-56 0,-37 62,-37 62,-56"/>
<text text-anchor="middle" x="31" y="-44" font-family="Helvetica,sans-Serif" font-size="10.00">sdb_save</text>
</a>
</g>
</g>
<!-- Node2 -->
<g id="Node000002" class="node">
<title>Node2</title>
<g id="a_Node000002"><a xlink:href="sdb_8h.html#a41dc88ab89048875a54bfc7bd008ae3b" target="_top" xlink:title="Compresses data using LZ77&#45;style compression.">
<polygon fill="white" stroke="#666666" points="187.5,-93 98.5,-93 98.5,-74 187.5,-74 187.5,-93"/>
<text text-anchor="middle" x="143" y="-81" font-family="Helvetica,sans-Serif" font-size="10.00">lz77_compress</text>
</a>
</g>
</g>
<!-- Node1&#45;&gt;Node2 -->
<g id="edge1_Node000001_Node000002" class="edge">
<title>Node1&#45;&gt;Node2</title>
<g id="a_edge1_Node000001_Node000002"><a xlink:title=" ">
<path fill="none" stroke="#63b8ff" d="M60.33,-56.03C73.57,-60.48 89.53,-65.85 103.82,-70.66"/>
<polygon fill="#63b8ff" stroke="#63b8ff" points="102.79,-74 113.39,-73.88 105.02,-67.37 102.79,-74"/>
</a>
</g>
</g>
<!-- Node3 -->
<g id="Node000003" class="node">
<title>Node3</title>
<g id="a_Node000003"><a xlink:href="sdb_8h.html#a353b821ac4af680892de5414e7c6c2b5" target="_top" xlink:title="Compresses data using run&#45;length encoding.">
<polygon fill="white" stroke="#666666" points="184,-56 102,-56 102,-37 184,-37 184,-56"/>
<text text-anchor="middle" x="143" y="-44" font-family="Helvetica,sans-Serif" font-size="10.00">rle_compress</text>
</a>
</g>
</g>
<!-- Node1&#45;&gt;Node3 -->
<g id="edge2_Node000001_Node000003" class="edge">
<title>Node1&#45;&gt;Node3</title>
<g id="a_edge2_Node000001_Node000003"><a xlink:title=" ">
<path fill="none" stroke="#63b8ff" d="M62.06,-46.5C71.12,-46.5 81.33,-46.5 91.35,-46.5"/>
<polygon fill="#63b8ff" stroke="#63b8ff" points="91.66,-50 101.66,-46.5 91.66,-43 91.66,-50"/>
</a>
</g>
</g>
<!-- Node4 -->
<g id="Node000004" class="node">
<title>Node4</title>
<g id="a_Node000004"><a xlink:href="sdb_8h.html#a0c179ece8c7ce27666738d126d88cf9f" target="_top" xlink:title="Helper function to write data to a buffer with automatic resizing.">
<polygon fill="white" stroke="#666666" points="188,-19 98,-19 98,0 188,0 188,-19"/>
<text text-anchor="middle" x="143" y="-7" font-family="Helvetica,sans-Serif" font-size="10.00">write_to_buffer</text>
</a>
</g>
</g>
<!-- Node1&#45;&gt;Node4 -->
<g id="edge3_Node000001_Node000004" class="edge">
<title>Node1&#45;&gt;Node4</title>
<g id="a_edge3_Node000001_Node000004"><a xlink:title=" ">
<path fill="none" stroke="#63b8ff" d="M60.33,-36.97C73.57,-32.52 89.53,-27.15 103.82,-22.34"/>
<polygon fill="#63b8ff" stroke="#63b8ff" points="105.02,-25.63 113.39,-19.12 102.79,-19 105.02,-25.63"/>
</a>
</g>
</g>
</g>
</svg>
