<?xml version="1.0" encoding="UTF-8" standalone="no"?>
<!DOCTYPE svg PUBLIC "-//W3C//DTD SVG 1.1//EN"
 "http://www.w3.org/Graphics/SVG/1.1/DTD/svg11.dtd">
<!-- Generated by graphviz version 2.43.0 (0)
 -->
<!-- Title: sdb_open Pages: 1 -->
<svg width="208pt" height="66pt"
 viewBox="0.00 0.00 208.00 66.00" xmlns="http://www.w3.org/2000/svg" xmlns:xlink="http://www.w3.org/1999/xlink">
<g id="graph0" class="graph" transform="scale(1 1) rotate(0) translate(4 62)">
<title>sdb_open</title>
<!-- Node1 -->
<g id="node1" class="node">
<title>Node1</title>
<g id="a_node1"><a xlink:title="Opens a database file.">
<polygon fill="#bfbfbf" stroke="black" points="0,-19.5 0,-38.5 63,-38.5 63,-19.5 0,-19.5"/>
<text text-anchor="middle" x="31.5" y="-26.5" font-family="Helvetica,sans-Serif" font-size="10.00">sdb_open</text>
</a>
</g>
</g>
<!-- Node2 -->
<g id="node2" class="node">
<title>Node2</title>
<g id="a_node2"><a xlink:href="sdb_8h.html#ae6e48bacc3e6a6757a4dc1fdf56f7855" target="_top" xlink:title="Decompresses LZ77 compressed data.">
<polygon fill="none" stroke="black" points="99,-38.5 99,-57.5 200,-57.5 200,-38.5 99,-38.5"/>
<text text-anchor="middle" x="149.5" y="-45.5" font-family="Helvetica,sans-Serif" font-size="10.00">lz77_decompress</text>
</a>
</g>
</g>
<!-- Node1&#45;&gt;Node2 -->
<g id="edge1" class="edge">
<title>Node1&#45;&gt;Node2</title>
<path fill="none" stroke="midnightblue" d="M63.28,-34.04C71.18,-35.34 79.95,-36.77 88.78,-38.22"/>
<polygon fill="midnightblue" stroke="midnightblue" points="88.29,-41.68 98.72,-39.85 89.42,-34.78 88.29,-41.68"/>
</g>
<!-- Node3 -->
<g id="node3" class="node">
<title>Node3</title>
<g id="a_node3"><a xlink:href="sdb_8h.html#a9a446288941fb71784a3a1cce823a689" target="_top" xlink:title="Decompresses RLE compressed data.">
<polygon fill="none" stroke="black" points="102.5,-0.5 102.5,-19.5 196.5,-19.5 196.5,-0.5 102.5,-0.5"/>
<text text-anchor="middle" x="149.5" y="-7.5" font-family="Helvetica,sans-Serif" font-size="10.00">rle_decompress</text>
</a>
</g>
</g>
<!-- Node1&#45;&gt;Node3 -->
<g id="edge2" class="edge">
<title>Node1&#45;&gt;Node3</title>
<path fill="none" stroke="midnightblue" d="M63.28,-23.96C72.24,-22.49 82.32,-20.84 92.33,-19.2"/>
<polygon fill="midnightblue" stroke="midnightblue" points="92.97,-22.64 102.27,-17.57 91.84,-15.73 92.97,-22.64"/>
</g>
</g>
</svg>
