<?xml version="1.0" encoding="UTF-8" standalone="no"?>
<!DOCTYPE svg PUBLIC "-//W3C//DTD SVG 1.1//EN"
 "http://www.w3.org/Graphics/SVG/1.1/DTD/svg11.dtd">
<!-- Generated by graphviz version 2.43.0 (0)
 -->
<!-- Title: hash_string Pages: 1 -->
<svg width="347pt" height="66pt"
 viewBox="0.00 0.00 347.00 66.00" xmlns="http://www.w3.org/2000/svg" xmlns:xlink="http://www.w3.org/1999/xlink">
<g id="graph0" class="graph" transform="scale(1 1) rotate(0) translate(4 62)">
<title>hash_string</title>
<!-- Node1 -->
<g id="node1" class="node">
<title>Node1</title>
<g id="a_node1"><a xlink:title=" ">
<polygon fill="#bfbfbf" stroke="black" points="266,-19.5 266,-38.5 339,-38.5 339,-19.5 266,-19.5"/>
<text text-anchor="middle" x="302.5" y="-26.5" font-family="Helvetica,sans-Serif" font-size="10.00">hash_string</text>
</a>
</g>
</g>
<!-- Node2 -->
<g id="node2" class="node">
<title>Node2</title>
<g id="a_node2"><a xlink:href="sdb_8h.html#a59a73b6989beba1f08df6a9d1ec9e8ae" target="_top" xlink:title="Sets a value in the database.">
<polygon fill="none" stroke="black" points="146,-19.5 146,-38.5 230,-38.5 230,-19.5 146,-19.5"/>
<text text-anchor="middle" x="188" y="-26.5" font-family="Helvetica,sans-Serif" font-size="10.00">sdb_table_set</text>
</a>
</g>
</g>
<!-- Node1&#45;&gt;Node2 -->
<g id="edge1" class="edge">
<title>Node1&#45;&gt;Node2</title>
<path fill="none" stroke="midnightblue" d="M255.81,-29C247.35,-29 238.57,-29 230.25,-29"/>
<polygon fill="midnightblue" stroke="midnightblue" points="255.9,-32.5 265.9,-29 255.9,-25.5 255.9,-32.5"/>
</g>
<!-- Node3 -->
<g id="node3" class="node">
<title>Node3</title>
<g id="a_node3"><a xlink:href="main_8c.html#ae66f6b31b5ad750f1fe042a706a4e3d4" target="_top" xlink:title=" ">
<polygon fill="none" stroke="black" points="34.5,-38.5 34.5,-57.5 75.5,-57.5 75.5,-38.5 34.5,-38.5"/>
<text text-anchor="middle" x="55" y="-45.5" font-family="Helvetica,sans-Serif" font-size="10.00">main</text>
</a>
</g>
</g>
<!-- Node2&#45;&gt;Node3 -->
<g id="edge2" class="edge">
<title>Node2&#45;&gt;Node3</title>
<path fill="none" stroke="midnightblue" d="M135.79,-36.43C114.74,-39.48 91.63,-42.83 75.72,-45.14"/>
<polygon fill="midnightblue" stroke="midnightblue" points="136.52,-39.86 145.91,-34.96 135.51,-32.93 136.52,-39.86"/>
</g>
<!-- Node4 -->
<g id="node4" class="node">
<title>Node4</title>
<g id="a_node4"><a xlink:href="sdb_8h.html#a2a86f0ae8eaea9297bd3220f2a8ab869" target="_top" xlink:title=" ">
<polygon fill="none" stroke="black" points="0,-0.5 0,-19.5 110,-19.5 110,-0.5 0,-0.5"/>
<text text-anchor="middle" x="55" y="-7.5" font-family="Helvetica,sans-Serif" font-size="10.00">sdb_batch_execute</text>
</a>
</g>
</g>
<!-- Node2&#45;&gt;Node4 -->
<g id="edge3" class="edge">
<title>Node2&#45;&gt;Node4</title>
<path fill="none" stroke="midnightblue" d="M135.91,-21.59C127.54,-20.38 118.84,-19.11 110.4,-17.89"/>
<polygon fill="midnightblue" stroke="midnightblue" points="135.51,-25.07 145.91,-23.04 136.52,-18.14 135.51,-25.07"/>
</g>
</g>
</svg>
