<?xml version="1.0" encoding="UTF-8" standalone="no"?>
<!DOCTYPE svg PUBLIC "-//W3C//DTD SVG 1.1//EN"
 "http://www.w3.org/Graphics/SVG/1.1/DTD/svg11.dtd">
<!-- Generated by graphviz version 2.43.0 (0)
 -->
<!-- Title: rle_decompress Pages: 1 -->
<svg width="278pt" height="27pt"
 viewBox="0.00 0.00 278.00 27.00" xmlns="http://www.w3.org/2000/svg" xmlns:xlink="http://www.w3.org/1999/xlink">
<g id="graph0" class="graph" transform="scale(1 1) rotate(0) translate(4 23)">
<title>rle_decompress</title>
<!-- Node1 -->
<g id="Node000001" class="node">
<title>Node1</title>
<g id="a_Node000001"><a xlink:title="Decompresses RLE compressed data.">
<polygon fill="#999999" stroke="#666666" points="270,-19 176,-19 176,0 270,0 270,-19"/>
<text text-anchor="middle" x="223" y="-7" font-family="Helvetica,sans-Serif" font-size="10.00">rle_decompress</text>
</a>
</g>
</g>
<!-- Node2 -->
<g id="Node000002" class="node">
<title>Node2</title>
<g id="a_Node000002"><a xlink:href="sdb_8h.html#aac1c4fc7402cd7ac2cb2e9ec6cb0f71a" target="_top" xlink:title="Opens a database file.">
<polygon fill="white" stroke="#666666" points="140,-19 77,-19 77,0 140,0 140,-19"/>
<text text-anchor="middle" x="108.5" y="-7" font-family="Helvetica,sans-Serif" font-size="10.00">sdb_open</text>
</a>
</g>
</g>
<!-- Node1&#45;&gt;Node2 -->
<g id="edge1_Node000001_Node000002" class="edge">
<title>Node1&#45;&gt;Node2</title>
<g id="a_edge1_Node000001_Node000002"><a xlink:title=" ">
<path fill="none" stroke="#63b8ff" d="M165.68,-9.5C156.91,-9.5 148.15,-9.5 140.24,-9.5"/>
<polygon fill="#63b8ff" stroke="#63b8ff" points="165.92,-13 175.92,-9.5 165.92,-6 165.92,-13"/>
</a>
</g>
</g>
<!-- Node3 -->
<g id="Node000003" class="node">
<title>Node3</title>
<g id="a_Node000003"><a xlink:href="main_8c.html#ae66f6b31b5ad750f1fe042a706a4e3d4" target="_top" xlink:title=" ">
<polygon fill="white" stroke="#666666" points="41,-19 0,-19 0,0 41,0 41,-19"/>
<text text-anchor="middle" x="20.5" y="-7" font-family="Helvetica,sans-Serif" font-size="10.00">main</text>
</a>
</g>
</g>
<!-- Node2&#45;&gt;Node3 -->
<g id="edge2_Node000002_Node000003" class="edge">
<title>Node2&#45;&gt;Node3</title>
<g id="a_edge2_Node000002_Node000003"><a xlink:title=" ">
<path fill="none" stroke="#63b8ff" d="M66.68,-9.5C57.81,-9.5 48.83,-9.5 41.23,-9.5"/>
<polygon fill="#63b8ff" stroke="#63b8ff" points="66.94,-13 76.94,-9.5 66.94,-6 66.94,-13"/>
</a>
</g>
</g>
</g>
</svg>
