<?xml version="1.0" encoding="UTF-8" standalone="no"?>
<!DOCTYPE svg PUBLIC "-//W3C//DTD SVG 1.1//EN"
 "http://www.w3.org/Graphics/SVG/1.1/DTD/svg11.dtd">
<!-- Generated by graphviz version 2.43.0 (0)
 -->
<!-- Title: sdb_table_set Pages: 1 -->
<svg width="341pt" height="104pt"
 viewBox="0.00 0.00 341.00 104.00" xmlns="http://www.w3.org/2000/svg" xmlns:xlink="http://www.w3.org/1999/xlink">
<g id="graph0" class="graph" transform="scale(1 1) rotate(0) translate(4 100)">
<title>sdb_table_set</title>
<!-- Node1 -->
<g id="node1" class="node">
<title>Node1</title>
<g id="a_node1"><a xlink:title="Sets a value in the database.">
<polygon fill="#bfbfbf" stroke="black" points="0,-38.5 0,-57.5 84,-57.5 84,-38.5 0,-38.5"/>
<text text-anchor="middle" x="42" y="-45.5" font-family="Helvetica,sans-Serif" font-size="10.00">sdb_table_set</text>
</a>
</g>
</g>
<!-- Node2 -->
<g id="node2" class="node">
<title>Node2</title>
<g id="a_node2"><a xlink:href="sdb_8h.html#a1880aa13e614310d0e2022880bbbec14" target="_top" xlink:title=" ">
<polygon fill="none" stroke="black" points="127,-76.5 127,-95.5 200,-95.5 200,-76.5 127,-76.5"/>
<text text-anchor="middle" x="163.5" y="-83.5" font-family="Helvetica,sans-Serif" font-size="10.00">hash_string</text>
</a>
</g>
</g>
<!-- Node1&#45;&gt;Node2 -->
<g id="edge1" class="edge">
<title>Node1&#45;&gt;Node2</title>
<path fill="none" stroke="midnightblue" d="M73.15,-57.59C88.16,-62.36 106.49,-68.19 122.63,-73.32"/>
<polygon fill="midnightblue" stroke="midnightblue" points="121.76,-76.72 132.35,-76.41 123.89,-70.05 121.76,-76.72"/>
</g>
<!-- Node3 -->
<g id="node3" class="node">
<title>Node3</title>
<g id="a_node3"><a xlink:href="sdb_8h.html#a606f05f11750d966b89fccda2a42d7a3" target="_top" xlink:title="Saves the database.">
<polygon fill="none" stroke="black" points="132.5,-38.5 132.5,-57.5 194.5,-57.5 194.5,-38.5 132.5,-38.5"/>
<text text-anchor="middle" x="163.5" y="-45.5" font-family="Helvetica,sans-Serif" font-size="10.00">sdb_save</text>
</a>
</g>
</g>
<!-- Node1&#45;&gt;Node3 -->
<g id="edge2" class="edge">
<title>Node1&#45;&gt;Node3</title>
<path fill="none" stroke="midnightblue" d="M84.13,-48C96.34,-48 109.72,-48 121.9,-48"/>
<polygon fill="midnightblue" stroke="midnightblue" points="122.25,-51.5 132.25,-48 122.25,-44.5 122.25,-51.5"/>
</g>
<!-- Node7 -->
<g id="node7" class="node">
<title>Node7</title>
<g id="a_node7"><a xlink:href="sdb_8h.html#a80de05c92ea53a4c3f73991ae28c569d" target="_top" xlink:title="Finds a table in the database.">
<polygon fill="none" stroke="black" points="120,-0.5 120,-19.5 207,-19.5 207,-0.5 120,-0.5"/>
<text text-anchor="middle" x="163.5" y="-7.5" font-family="Helvetica,sans-Serif" font-size="10.00">sdb_table_find</text>
</a>
</g>
</g>
<!-- Node1&#45;&gt;Node7 -->
<g id="edge6" class="edge">
<title>Node1&#45;&gt;Node7</title>
<path fill="none" stroke="midnightblue" d="M73.15,-38.41C88.16,-33.64 106.49,-27.81 122.63,-22.68"/>
<polygon fill="midnightblue" stroke="midnightblue" points="123.89,-25.95 132.35,-19.59 121.76,-19.28 123.89,-25.95"/>
</g>
<!-- Node4 -->
<g id="node4" class="node">
<title>Node4</title>
<g id="a_node4"><a xlink:href="sdb_8h.html#a06e5ec38763006ac3698d3232a70c37e" target="_top" xlink:title="Compresses data using LZ77&#45;style compression.">
<polygon fill="none" stroke="black" points="243.5,-76.5 243.5,-95.5 332.5,-95.5 332.5,-76.5 243.5,-76.5"/>
<text text-anchor="middle" x="288" y="-83.5" font-family="Helvetica,sans-Serif" font-size="10.00">lz77_compress</text>
</a>
</g>
</g>
<!-- Node3&#45;&gt;Node4 -->
<g id="edge3" class="edge">
<title>Node3&#45;&gt;Node4</title>
<path fill="none" stroke="midnightblue" d="M194.78,-57.39C210.42,-62.24 229.71,-68.23 246.6,-73.47"/>
<polygon fill="midnightblue" stroke="midnightblue" points="245.63,-76.83 256.22,-76.45 247.7,-70.15 245.63,-76.83"/>
</g>
<!-- Node5 -->
<g id="node5" class="node">
<title>Node5</title>
<g id="a_node5"><a xlink:href="sdb_8h.html#aa5ac13dd5ce8b589b99fb8d55591455c" target="_top" xlink:title="Compresses data using run&#45;length encoding.">
<polygon fill="none" stroke="black" points="247,-38.5 247,-57.5 329,-57.5 329,-38.5 247,-38.5"/>
<text text-anchor="middle" x="288" y="-45.5" font-family="Helvetica,sans-Serif" font-size="10.00">rle_compress</text>
</a>
</g>
</g>
<!-- Node3&#45;&gt;Node5 -->
<g id="edge4" class="edge">
<title>Node3&#45;&gt;Node5</title>
<path fill="none" stroke="midnightblue" d="M194.78,-48C207.44,-48 222.49,-48 236.72,-48"/>
<polygon fill="midnightblue" stroke="midnightblue" points="236.9,-51.5 246.9,-48 236.9,-44.5 236.9,-51.5"/>
</g>
<!-- Node6 -->
<g id="node6" class="node">
<title>Node6</title>
<g id="a_node6"><a xlink:href="sdb_8h.html#a0c179ece8c7ce27666738d126d88cf9f" target="_top" xlink:title="Helper function to write data to a buffer with automatic resizing.">
<polygon fill="none" stroke="black" points="243,-0.5 243,-19.5 333,-19.5 333,-0.5 243,-0.5"/>
<text text-anchor="middle" x="288" y="-7.5" font-family="Helvetica,sans-Serif" font-size="10.00">write_to_buffer</text>
</a>
</g>
</g>
<!-- Node3&#45;&gt;Node6 -->
<g id="edge5" class="edge">
<title>Node3&#45;&gt;Node6</title>
<path fill="none" stroke="midnightblue" d="M194.78,-38.61C210.42,-33.76 229.71,-27.77 246.6,-22.53"/>
<polygon fill="midnightblue" stroke="midnightblue" points="247.7,-25.85 256.22,-19.55 245.63,-19.17 247.7,-25.85"/>
</g>
</g>
</svg>
