<?xml version="1.0" encoding="UTF-8" standalone="no"?>
<!DOCTYPE svg PUBLIC "-//W3C//DTD SVG 1.1//EN"
 "http://www.w3.org/Graphics/SVG/1.1/DTD/svg11.dtd">
<!-- Generated by graphviz version 2.43.0 (0)
 -->
<!-- Title: sdb_table_find Pages: 1 -->
<svg width="362pt" height="64pt"
 viewBox="0.00 0.00 362.00 64.00" xmlns="http://www.w3.org/2000/svg" xmlns:xlink="http://www.w3.org/1999/xlink">
<g id="graph0" class="graph" transform="scale(1 1) rotate(0) translate(4 60)">
<title>sdb_table_find</title>
<!-- Node1 -->
<g id="Node000001" class="node">
<title>Node1</title>
<g id="a_Node000001"><a xlink:title="Finds a table in the database.">
<polygon fill="#999999" stroke="#666666" points="354,-37 267,-37 267,-18 354,-18 354,-37"/>
<text text-anchor="middle" x="310.5" y="-25" font-family="Helvetica,sans-Serif" font-size="10.00">sdb_table_find</text>
</a>
</g>
</g>
<!-- Node2 -->
<g id="Node000002" class="node">
<title>Node2</title>
<g id="a_Node000002"><a xlink:href="sdb_8h.html#a9430c2398f7ae969d665981dfe8d9291" target="_top" xlink:title="Gets a value from the database.">
<polygon fill="white" stroke="#666666" points="231,-56 146,-56 146,-37 231,-37 231,-56"/>
<text text-anchor="middle" x="188.5" y="-44" font-family="Helvetica,sans-Serif" font-size="10.00">sdb_table_get</text>
</a>
</g>
</g>
<!-- Node1&#45;&gt;Node2 -->
<g id="edge1_Node000001_Node000002" class="edge">
<title>Node1&#45;&gt;Node2</title>
<g id="a_edge1_Node000001_Node000002"><a xlink:title=" ">
<path fill="none" stroke="#63b8ff" d="M256.9,-35.83C248.3,-37.19 239.49,-38.58 231.2,-39.9"/>
<polygon fill="#63b8ff" stroke="#63b8ff" points="257.53,-39.27 266.85,-34.25 256.43,-32.36 257.53,-39.27"/>
</a>
</g>
</g>
<!-- Node4 -->
<g id="Node000004" class="node">
<title>Node4</title>
<g id="a_Node000004"><a xlink:href="sdb_8h.html#a59a73b6989beba1f08df6a9d1ec9e8ae" target="_top" xlink:title="Sets a value in the database.">
<polygon fill="white" stroke="#666666" points="230.5,-19 146.5,-19 146.5,0 230.5,0 230.5,-19"/>
<text text-anchor="middle" x="188.5" y="-7" font-family="Helvetica,sans-Serif" font-size="10.00">sdb_table_set</text>
</a>
</g>
</g>
<!-- Node1&#45;&gt;Node4 -->
<g id="edge3_Node000001_Node000004" class="edge">
<title>Node1&#45;&gt;Node4</title>
<g id="a_edge3_Node000001_Node000004"><a xlink:title=" ">
<path fill="none" stroke="#63b8ff" d="M256.78,-19.59C248.08,-18.29 239.17,-16.95 230.8,-15.69"/>
<polygon fill="#63b8ff" stroke="#63b8ff" points="256.45,-23.08 266.85,-21.1 257.48,-16.16 256.45,-23.08"/>
</a>
</g>
</g>
<!-- Node3 -->
<g id="Node000003" class="node">
<title>Node3</title>
<g id="a_Node000003"><a xlink:href="main_8c.html#ae66f6b31b5ad750f1fe042a706a4e3d4" target="_top" xlink:title=" ">
<polygon fill="white" stroke="#666666" points="75.5,-56 34.5,-56 34.5,-37 75.5,-37 75.5,-56"/>
<text text-anchor="middle" x="55" y="-44" font-family="Helvetica,sans-Serif" font-size="10.00">main</text>
</a>
</g>
</g>
<!-- Node2&#45;&gt;Node3 -->
<g id="edge2_Node000002_Node000003" class="edge">
<title>Node2&#45;&gt;Node3</title>
<g id="a_edge2_Node000002_Node000003"><a xlink:title=" ">
<path fill="none" stroke="#63b8ff" d="M135.75,-46.5C114.67,-46.5 91.57,-46.5 75.69,-46.5"/>
<polygon fill="#63b8ff" stroke="#63b8ff" points="135.89,-50 145.89,-46.5 135.89,-43 135.89,-50"/>
</a>
</g>
</g>
<!-- Node4&#45;&gt;Node3 -->
<g id="edge4_Node000004_Node000003" class="edge">
<title>Node4&#45;&gt;Node3</title>
<g id="a_edge4_Node000004_Node000003"><a xlink:title=" ">
<path fill="none" stroke="#63b8ff" d="M143.75,-21.81C120.79,-28.27 93.78,-35.87 75.85,-40.91"/>
<polygon fill="#63b8ff" stroke="#63b8ff" points="144.96,-25.11 153.64,-19.03 143.06,-18.37 144.96,-25.11"/>
</a>
</g>
</g>
<!-- Node5 -->
<g id="Node000005" class="node">
<title>Node5</title>
<g id="a_Node000005"><a xlink:href="sdb_8h.html#a2a86f0ae8eaea9297bd3220f2a8ab869" target="_top" xlink:title=" ">
<polygon fill="white" stroke="#666666" points="110,-19 0,-19 0,0 110,0 110,-19"/>
<text text-anchor="middle" x="55" y="-7" font-family="Helvetica,sans-Serif" font-size="10.00">sdb_batch_execute</text>
</a>
</g>
</g>
<!-- Node4&#45;&gt;Node5 -->
<g id="edge5_Node000004_Node000005" class="edge">
<title>Node4&#45;&gt;Node5</title>
<g id="a_edge5_Node000004_Node000005"><a xlink:title=" ">
<path fill="none" stroke="#63b8ff" d="M136.08,-9.5C127.56,-9.5 118.71,-9.5 110.13,-9.5"/>
<polygon fill="#63b8ff" stroke="#63b8ff" points="136.25,-13 146.25,-9.5 136.25,-6 136.25,-13"/>
</a>
</g>
</g>
</g>
</svg>
