<?xml version="1.0" encoding="UTF-8" standalone="no"?>
<!DOCTYPE svg PUBLIC "-//W3C//DTD SVG 1.1//EN"
 "http://www.w3.org/Graphics/SVG/1.1/DTD/svg11.dtd">
<!-- Generated by graphviz version 2.43.0 (0)
 -->
<!-- Title: sdb_batch_execute Pages: 1 -->
<svg width="487pt" height="142pt"
 viewBox="0.00 0.00 487.00 142.00" xmlns="http://www.w3.org/2000/svg" xmlns:xlink="http://www.w3.org/1999/xlink">
<g id="graph0" class="graph" transform="scale(1 1) rotate(0) translate(4 138)">
<title>sdb_batch_execute</title>
<!-- Node1 -->
<g id="node1" class="node">
<title>Node1</title>
<g id="a_node1"><a xlink:title=" ">
<polygon fill="#bfbfbf" stroke="black" points="0,-57.5 0,-76.5 110,-76.5 110,-57.5 0,-57.5"/>
<text text-anchor="middle" x="55" y="-64.5" font-family="Helvetica,sans-Serif" font-size="10.00">sdb_batch_execute</text>
</a>
</g>
</g>
<!-- Node2 -->
<g id="node2" class="node">
<title>Node2</title>
<g id="a_node2"><a xlink:href="sdb_8h.html#a606f05f11750d966b89fccda2a42d7a3" target="_top" xlink:title="Saves the database.">
<polygon fill="none" stroke="black" points="278.5,-76.5 278.5,-95.5 340.5,-95.5 340.5,-76.5 278.5,-76.5"/>
<text text-anchor="middle" x="309.5" y="-83.5" font-family="Helvetica,sans-Serif" font-size="10.00">sdb_save</text>
</a>
</g>
</g>
<!-- Node1&#45;&gt;Node2 -->
<g id="edge1" class="edge">
<title>Node1&#45;&gt;Node2</title>
<path fill="none" stroke="midnightblue" d="M110.17,-71.08C157.56,-74.64 225.33,-79.74 268.1,-82.96"/>
<polygon fill="midnightblue" stroke="midnightblue" points="267.92,-86.46 278.15,-83.72 268.44,-79.48 267.92,-86.46"/>
</g>
<!-- Node6 -->
<g id="node6" class="node">
<title>Node6</title>
<g id="a_node6"><a xlink:href="sdb_8h.html#a59a73b6989beba1f08df6a9d1ec9e8ae" target="_top" xlink:title="Sets a value in the database.">
<polygon fill="none" stroke="black" points="146,-38.5 146,-57.5 230,-57.5 230,-38.5 146,-38.5"/>
<text text-anchor="middle" x="188" y="-45.5" font-family="Helvetica,sans-Serif" font-size="10.00">sdb_table_set</text>
</a>
</g>
</g>
<!-- Node1&#45;&gt;Node6 -->
<g id="edge5" class="edge">
<title>Node1&#45;&gt;Node6</title>
<path fill="none" stroke="midnightblue" d="M110.04,-59.16C118.56,-57.93 127.34,-56.65 135.79,-55.43"/>
<polygon fill="midnightblue" stroke="midnightblue" points="136.5,-58.86 145.9,-53.96 135.5,-51.93 136.5,-58.86"/>
</g>
<!-- Node3 -->
<g id="node3" class="node">
<title>Node3</title>
<g id="a_node3"><a xlink:href="sdb_8h.html#a06e5ec38763006ac3698d3232a70c37e" target="_top" xlink:title="Compresses data using LZ77&#45;style compression.">
<polygon fill="none" stroke="black" points="389.5,-114.5 389.5,-133.5 478.5,-133.5 478.5,-114.5 389.5,-114.5"/>
<text text-anchor="middle" x="434" y="-121.5" font-family="Helvetica,sans-Serif" font-size="10.00">lz77_compress</text>
</a>
</g>
</g>
<!-- Node2&#45;&gt;Node3 -->
<g id="edge2" class="edge">
<title>Node2&#45;&gt;Node3</title>
<path fill="none" stroke="midnightblue" d="M340.78,-95.39C356.42,-100.24 375.71,-106.23 392.6,-111.47"/>
<polygon fill="midnightblue" stroke="midnightblue" points="391.63,-114.83 402.22,-114.45 393.7,-108.15 391.63,-114.83"/>
</g>
<!-- Node4 -->
<g id="node4" class="node">
<title>Node4</title>
<g id="a_node4"><a xlink:href="sdb_8h.html#aa5ac13dd5ce8b589b99fb8d55591455c" target="_top" xlink:title="Compresses data using run&#45;length encoding.">
<polygon fill="none" stroke="black" points="393,-76.5 393,-95.5 475,-95.5 475,-76.5 393,-76.5"/>
<text text-anchor="middle" x="434" y="-83.5" font-family="Helvetica,sans-Serif" font-size="10.00">rle_compress</text>
</a>
</g>
</g>
<!-- Node2&#45;&gt;Node4 -->
<g id="edge3" class="edge">
<title>Node2&#45;&gt;Node4</title>
<path fill="none" stroke="midnightblue" d="M340.78,-86C353.44,-86 368.49,-86 382.72,-86"/>
<polygon fill="midnightblue" stroke="midnightblue" points="382.9,-89.5 392.9,-86 382.9,-82.5 382.9,-89.5"/>
</g>
<!-- Node5 -->
<g id="node5" class="node">
<title>Node5</title>
<g id="a_node5"><a xlink:href="sdb_8h.html#a0c179ece8c7ce27666738d126d88cf9f" target="_top" xlink:title="Helper function to write data to a buffer with automatic resizing.">
<polygon fill="none" stroke="black" points="389,-38.5 389,-57.5 479,-57.5 479,-38.5 389,-38.5"/>
<text text-anchor="middle" x="434" y="-45.5" font-family="Helvetica,sans-Serif" font-size="10.00">write_to_buffer</text>
</a>
</g>
</g>
<!-- Node2&#45;&gt;Node5 -->
<g id="edge4" class="edge">
<title>Node2&#45;&gt;Node5</title>
<path fill="none" stroke="midnightblue" d="M340.78,-76.61C356.42,-71.76 375.71,-65.77 392.6,-60.53"/>
<polygon fill="midnightblue" stroke="midnightblue" points="393.7,-63.85 402.22,-57.55 391.63,-57.17 393.7,-63.85"/>
</g>
<!-- Node6&#45;&gt;Node2 -->
<g id="edge7" class="edge">
<title>Node6&#45;&gt;Node2</title>
<path fill="none" stroke="midnightblue" d="M219.15,-57.59C234.16,-62.36 252.49,-68.19 268.63,-73.32"/>
<polygon fill="midnightblue" stroke="midnightblue" points="267.76,-76.72 278.35,-76.41 269.89,-70.05 267.76,-76.72"/>
</g>
<!-- Node7 -->
<g id="node7" class="node">
<title>Node7</title>
<g id="a_node7"><a xlink:href="sdb_8h.html#a1880aa13e614310d0e2022880bbbec14" target="_top" xlink:title=" ">
<polygon fill="none" stroke="black" points="273,-38.5 273,-57.5 346,-57.5 346,-38.5 273,-38.5"/>
<text text-anchor="middle" x="309.5" y="-45.5" font-family="Helvetica,sans-Serif" font-size="10.00">hash_string</text>
</a>
</g>
</g>
<!-- Node6&#45;&gt;Node7 -->
<g id="edge6" class="edge">
<title>Node6&#45;&gt;Node7</title>
<path fill="none" stroke="midnightblue" d="M230.13,-48C240.66,-48 252.06,-48 262.82,-48"/>
<polygon fill="midnightblue" stroke="midnightblue" points="262.88,-51.5 272.88,-48 262.88,-44.5 262.88,-51.5"/>
</g>
<!-- Node8 -->
<g id="node8" class="node">
<title>Node8</title>
<g id="a_node8"><a xlink:href="sdb_8h.html#a80de05c92ea53a4c3f73991ae28c569d" target="_top" xlink:title="Finds a table in the database.">
<polygon fill="none" stroke="black" points="266,-0.5 266,-19.5 353,-19.5 353,-0.5 266,-0.5"/>
<text text-anchor="middle" x="309.5" y="-7.5" font-family="Helvetica,sans-Serif" font-size="10.00">sdb_table_find</text>
</a>
</g>
</g>
<!-- Node6&#45;&gt;Node8 -->
<g id="edge8" class="edge">
<title>Node6&#45;&gt;Node8</title>
<path fill="none" stroke="midnightblue" d="M219.15,-38.41C234.16,-33.64 252.49,-27.81 268.63,-22.68"/>
<polygon fill="midnightblue" stroke="midnightblue" points="269.89,-25.95 278.35,-19.59 267.76,-19.28 269.89,-25.95"/>
</g>
</g>
</svg>
