<?xml version="1.0" encoding="UTF-8" standalone="no"?>
<!DOCTYPE svg PUBLIC "-//W3C//DTD SVG 1.1//EN"
 "http://www.w3.org/Graphics/SVG/1.1/DTD/svg11.dtd">
<!-- Generated by graphviz version 2.43.0 (0)
 -->
<!-- Title: SDBTable Pages: 1 -->
<svg width="220pt" height="258pt"
 viewBox="0.00 0.00 219.50 258.00" xmlns="http://www.w3.org/2000/svg" xmlns:xlink="http://www.w3.org/1999/xlink">
<g id="graph0" class="graph" transform="scale(1 1) rotate(0) translate(4 254)">
<title>SDBTable</title>
<!-- Node1 -->
<g id="Node000001" class="node">
<title>Node1</title>
<g id="a_Node000001"><a xlink:title=" ">
<polygon fill="#999999" stroke="#666666" points="62,-19 0,-19 0,0 62,0 62,-19"/>
<text text-anchor="middle" x="31" y="-7" font-family="Helvetica,sans-Serif" font-size="10.00">SDBTable</text>
</a>
</g>
</g>
<!-- Node2 -->
<g id="Node000002" class="node">
<title>Node2</title>
<g id="a_Node000002"><a xlink:title=" ">
<polygon fill="white" stroke="#666666" points="54,-250 8,-250 8,-231 54,-231 54,-250"/>
<text text-anchor="middle" x="31" y="-238" font-family="Helvetica,sans-Serif" font-size="10.00">char *</text>
</a>
</g>
</g>
<!-- Node2&#45;&gt;Node1 -->
<g id="edge1_Node000001_Node000002" class="edge">
<title>Node2&#45;&gt;Node1</title>
<g id="a_edge1_Node000001_Node000002"><a xlink:title=" ">
<path fill="none" stroke="#9a32cd" stroke-dasharray="5,2" d="M31,-220.52C31,-173.43 31,-52.66 31,-19.21"/>
<polygon fill="#9a32cd" stroke="#9a32cd" points="27.5,-220.8 31,-230.8 34.5,-220.8 27.5,-220.8"/>
</a>
</g>
<text text-anchor="middle" x="46.5" y="-117" font-family="Helvetica,sans-Serif" font-size="10.00" fill="grey"> name</text>
</g>
<!-- Node4 -->
<g id="Node000004" class="node">
<title>Node4</title>
<g id="a_Node000004"><a xlink:href="structSDBEntry.html" target="_top" xlink:title=" ">
<polygon fill="white" stroke="#666666" points="105,-173 43,-173 43,-154 105,-154 105,-173"/>
<text text-anchor="middle" x="74" y="-161" font-family="Helvetica,sans-Serif" font-size="10.00">SDBEntry</text>
</a>
</g>
</g>
<!-- Node2&#45;&gt;Node4 -->
<g id="edge4_Node000004_Node000002" class="edge">
<title>Node2&#45;&gt;Node4</title>
<g id="a_edge4_Node000004_Node000002"><a xlink:title=" ">
<path fill="none" stroke="#9a32cd" stroke-dasharray="5,2" d="M41.12,-221.86C49.94,-206.47 62.35,-184.82 69.12,-173"/>
<polygon fill="#9a32cd" stroke="#9a32cd" points="37.87,-220.48 35.93,-230.9 43.94,-223.96 37.87,-220.48"/>
</a>
</g>
<text text-anchor="middle" x="72" y="-205" font-family="Helvetica,sans-Serif" font-size="10.00" fill="grey"> key</text>
<text text-anchor="middle" x="72" y="-194" font-family="Helvetica,sans-Serif" font-size="10.00" fill="grey">value</text>
</g>
<!-- Node3 -->
<g id="Node000003" class="node">
<title>Node3</title>
<g id="a_Node000003"><a xlink:href="structSDBEntryList.html" target="_top" xlink:title=" ">
<polygon fill="white" stroke="#666666" points="123,-85 43,-85 43,-66 123,-66 123,-85"/>
<text text-anchor="middle" x="83" y="-73" font-family="Helvetica,sans-Serif" font-size="10.00">SDBEntryList</text>
</a>
</g>
</g>
<!-- Node3&#45;&gt;Node1 -->
<g id="edge2_Node000001_Node000003" class="edge">
<title>Node3&#45;&gt;Node1</title>
<g id="a_edge2_Node000001_Node000003"><a xlink:title=" ">
<path fill="none" stroke="#9a32cd" stroke-dasharray="5,2" d="M69.4,-57.77C59.43,-45.49 46.27,-29.3 38.24,-19.41"/>
<polygon fill="#9a32cd" stroke="#9a32cd" points="66.96,-60.31 75.99,-65.87 72.4,-55.9 66.96,-60.31"/>
</a>
</g>
<text text-anchor="middle" x="79.5" y="-40" font-family="Helvetica,sans-Serif" font-size="10.00" fill="grey"> entries</text>
</g>
<!-- Node4&#45;&gt;Node3 -->
<g id="edge3_Node000003_Node000004" class="edge">
<title>Node4&#45;&gt;Node3</title>
<g id="a_edge3_Node000003_Node000004"><a xlink:title=" ">
<path fill="none" stroke="#9a32cd" stroke-dasharray="5,2" d="M75.95,-143.91C77.85,-125.67 80.68,-98.65 82.11,-85.03"/>
<polygon fill="#9a32cd" stroke="#9a32cd" points="72.46,-143.63 74.9,-153.94 79.42,-144.36 72.46,-143.63"/>
</a>
</g>
<text text-anchor="middle" x="99.5" y="-128" font-family="Helvetica,sans-Serif" font-size="10.00" fill="grey"> entries</text>
<text text-anchor="middle" x="99.5" y="-117" font-family="Helvetica,sans-Serif" font-size="10.00" fill="grey">head</text>
<text text-anchor="middle" x="99.5" y="-106" font-family="Helvetica,sans-Serif" font-size="10.00" fill="grey">tail</text>
</g>
<!-- Node4&#45;&gt;Node4 -->
<g id="edge5_Node000004_Node000004" class="edge">
<title>Node4&#45;&gt;Node4</title>
<g id="a_edge5_Node000004_Node000004"><a xlink:title=" ">
<path fill="none" stroke="#9a32cd" stroke-dasharray="5,2" d="M115.15,-169.57C119.91,-168.45 123,-166.42 123,-163.5 123,-158.82 115.09,-156.45 105.1,-156.38"/>
<polygon fill="#9a32cd" stroke="#9a32cd" points="114.68,-166.1 105.1,-170.62 115.41,-173.06 114.68,-166.1"/>
</a>
</g>
<text text-anchor="middle" x="135.5" y="-161" font-family="Helvetica,sans-Serif" font-size="10.00" fill="grey"> next</text>
</g>
<!-- Node5 -->
<g id="Node000005" class="node">
<title>Node5</title>
<g id="a_Node000005"><a xlink:title=" ">
<polygon fill="white" stroke="#666666" points="211.5,-173 166.5,-173 166.5,-154 211.5,-154 211.5,-173"/>
<text text-anchor="middle" x="189" y="-161" font-family="Helvetica,sans-Serif" font-size="10.00">size_t</text>
</a>
</g>
</g>
<!-- Node5&#45;&gt;Node3 -->
<g id="edge6_Node000003_Node000005" class="edge">
<title>Node5&#45;&gt;Node3</title>
<g id="a_edge6_Node000003_Node000005"><a xlink:title=" ">
<path fill="none" stroke="#9a32cd" stroke-dasharray="5,2" d="M172.38,-146.65C159.13,-134.28 139.89,-116.93 122,-103 113.86,-96.66 104.29,-90.15 96.66,-85.16"/>
<polygon fill="#9a32cd" stroke="#9a32cd" points="170.11,-149.32 179.79,-153.63 174.91,-144.22 170.11,-149.32"/>
</a>
</g>
<text text-anchor="middle" x="181.5" y="-117" font-family="Helvetica,sans-Serif" font-size="10.00" fill="grey"> capacity</text>
</g>
</g>
</svg>
