<?xml version="1.0" encoding="UTF-8" standalone="no"?>
<!DOCTYPE svg PUBLIC "-//W3C//DTD SVG 1.1//EN"
 "http://www.w3.org/Graphics/SVG/1.1/DTD/svg11.dtd">
<!-- Generated by graphviz version 2.43.0 (0)
 -->
<!-- Title: SDBInfo Pages: 1 -->
<svg width="190pt" height="106pt"
 viewBox="0.00 0.00 190.00 106.00" xmlns="http://www.w3.org/2000/svg" xmlns:xlink="http://www.w3.org/1999/xlink">
<g id="graph0" class="graph" transform="scale(1 1) rotate(0) translate(4 102)">
<title>SDBInfo</title>
<!-- Node1 -->
<g id="node1" class="node">
<title>Node1</title>
<g id="a_node1"><a xlink:title=" ">
<polygon fill="#bfbfbf" stroke="black" points="76,-0.5 76,-19.5 132,-19.5 132,-0.5 76,-0.5"/>
<text text-anchor="middle" x="104" y="-7.5" font-family="Helvetica,sans-Serif" font-size="10.00">SDBInfo</text>
</a>
</g>
</g>
<!-- Node2 -->
<g id="node2" class="node">
<title>Node2</title>
<g id="a_node2"><a xlink:title=" ">
<polygon fill="none" stroke="#bfbfbf" points="0,-78.5 0,-97.5 108,-97.5 108,-78.5 0,-78.5"/>
<text text-anchor="middle" x="54" y="-85.5" font-family="Helvetica,sans-Serif" font-size="10.00">SDBCompressType</text>
</a>
</g>
</g>
<!-- Node2&#45;&gt;Node1 -->
<g id="edge1" class="edge">
<title>Node2&#45;&gt;Node1</title>
<path fill="none" stroke="#9a32cd" stroke-dasharray="5,2" d="M50.16,-68.44C49.14,-58.72 49.56,-46.99 55,-38 60.03,-29.69 68.6,-23.75 77.19,-19.6"/>
<polygon fill="#9a32cd" stroke="#9a32cd" points="46.7,-68.99 51.73,-78.32 53.61,-67.89 46.7,-68.99"/>
<text text-anchor="middle" x="94" y="-46.5" font-family="Helvetica,sans-Serif" font-size="10.00"> compress_type</text>
</g>
<!-- Node3 -->
<g id="node3" class="node">
<title>Node3</title>
<g id="a_node3"><a xlink:title=" ">
<polygon fill="none" stroke="#bfbfbf" points="132,-78.5 132,-97.5 178,-97.5 178,-78.5 132,-78.5"/>
<text text-anchor="middle" x="155" y="-85.5" font-family="Helvetica,sans-Serif" font-size="10.00">char *</text>
</a>
</g>
</g>
<!-- Node3&#45;&gt;Node1 -->
<g id="edge2" class="edge">
<title>Node3&#45;&gt;Node1</title>
<path fill="none" stroke="#9a32cd" stroke-dasharray="5,2" d="M148.93,-69.05C145.18,-59.35 139.78,-47.46 133,-38 128.03,-31.07 121.07,-24.51 115.22,-19.6"/>
<polygon fill="#9a32cd" stroke="#9a32cd" points="145.65,-70.27 152.34,-78.49 152.24,-67.89 145.65,-70.27"/>
<text text-anchor="middle" x="163.5" y="-52" font-family="Helvetica,sans-Serif" font-size="10.00"> path</text>
<text text-anchor="middle" x="163.5" y="-41" font-family="Helvetica,sans-Serif" font-size="10.00">version</text>
</g>
</g>
</svg>
