<?xml version="1.0" encoding="UTF-8" standalone="no"?>
<!DOCTYPE svg PUBLIC "-//W3C//DTD SVG 1.1//EN"
 "http://www.w3.org/Graphics/SVG/1.1/DTD/svg11.dtd">
<!-- Generated by graphviz version 2.43.0 (0)
 -->
<!-- Title: SDBPool Pages: 1 -->
<svg width="274pt" height="324pt"
 viewBox="0.00 0.00 274.00 324.00" xmlns="http://www.w3.org/2000/svg" xmlns:xlink="http://www.w3.org/1999/xlink">

<svg id="main" version="1.1" xmlns="http://www.w3.org/2000/svg" xmlns:xlink="http://www.w3.org/1999/xlink" xml:space="preserve" onload="init(evt)">
<style type="text/css"><![CDATA[
.node, .edge {opacity: 0.7;}
.node.selected, .edge.selected {opacity: 1;}
.edge:hover path { stroke: red; }
.edge:hover polygon { stroke: red; fill: red; }
]]></style>
<script type="application/ecmascript" xlink:href="svg.min.js"/>
<svg id="graph" class="graph">
<g id="graph0" class="graph" transform="scale(1 1) rotate(0) translate(4 320)">
<title>SDBPool</title>
<!-- Node1 -->
<g id="Node000001" class="node">
<title>Node1</title>
<g id="a_Node000001"><a xlink:title=" ">
<polygon fill="#999999" stroke="#666666" points="123,-19 65,-19 65,0 123,0 123,-19"/>
<text text-anchor="middle" x="94" y="-7" font-family="Helvetica,sans-Serif" font-size="10.00">SDBPool</text>
</a>
</g>
</g>
<!-- Node2 -->
<g id="Node000002" class="node">
<title>Node2</title>
<g id="a_Node000002"><a xlink:title=" ">
<polygon fill="white" stroke="#666666" points="76,-316 30,-316 30,-297 76,-297 76,-316"/>
<text text-anchor="middle" x="53" y="-304" font-family="Helvetica,sans-Serif" font-size="10.00">char *</text>
</a>
</g>
</g>
<!-- Node2&#45;&gt;Node1 -->
<g id="edge1_Node000001_Node000002" class="edge">
<title>Node2&#45;&gt;Node1</title>
<g id="a_edge1_Node000001_Node000002"><a xlink:title=" ">
<path fill="none" stroke="#9a32cd" stroke-dasharray="5,2" d="M33.58,-290.16C18.45,-276.35 0,-254.58 0,-230.5 0,-230.5 0,-230.5 0,-74.5 0,-42.71 37.18,-25.6 64.77,-17.27"/>
<polygon fill="#9a32cd" stroke="#9a32cd" points="31.64,-293.11 41.5,-296.97 36.2,-287.8 31.64,-293.11"/>
</a>
</g>
<text text-anchor="middle" x="12.5" y="-139" font-family="Helvetica,sans-Serif" font-size="10.00" fill="grey"> path</text>
</g>
<!-- Node3 -->
<g id="Node000003" class="node">
<title>Node3</title>
<g id="a_Node000003"><a xlink:href="structSDBTable.html" target="_top" xlink:title=" ">
<polygon fill="white" stroke="#666666" points="90,-85 28,-85 28,-66 90,-66 90,-85"/>
<text text-anchor="middle" x="59" y="-73" font-family="Helvetica,sans-Serif" font-size="10.00">SDBTable</text>
</a>
</g>
</g>
<!-- Node2&#45;&gt;Node3 -->
<g id="edge3_Node000003_Node000002" class="edge">
<title>Node2&#45;&gt;Node3</title>
<g id="a_edge3_Node000003_Node000002"><a xlink:title=" ">
<path fill="none" stroke="#9a32cd" stroke-dasharray="5,2" d="M53.5,-286.52C54.73,-239.43 57.9,-118.66 58.77,-85.21"/>
<polygon fill="#9a32cd" stroke="#9a32cd" points="49.99,-286.71 53.23,-296.8 56.99,-286.9 49.99,-286.71"/>
</a>
</g>
<text text-anchor="middle" x="71.5" y="-183" font-family="Helvetica,sans-Serif" font-size="10.00" fill="grey"> name</text>
</g>
<!-- Node5 -->
<g id="Node000005" class="node">
<title>Node5</title>
<g id="a_Node000005"><a xlink:href="structSDBEntry.html" target="_top" xlink:title=" ">
<polygon fill="white" stroke="#666666" points="143,-239 81,-239 81,-220 143,-220 143,-239"/>
<text text-anchor="middle" x="112" y="-227" font-family="Helvetica,sans-Serif" font-size="10.00">SDBEntry</text>
</a>
</g>
</g>
<!-- Node2&#45;&gt;Node5 -->
<g id="edge6_Node000005_Node000002" class="edge">
<title>Node2&#45;&gt;Node5</title>
<g id="a_edge6_Node000005_Node000002"><a xlink:title=" ">
<path fill="none" stroke="#9a32cd" stroke-dasharray="5,2" d="M66.19,-288.73C78.33,-273.3 95.84,-251.04 105.31,-239"/>
<polygon fill="#9a32cd" stroke="#9a32cd" points="63.2,-286.87 59.77,-296.9 68.7,-291.2 63.2,-286.87"/>
</a>
</g>
<text text-anchor="middle" x="103" y="-271" font-family="Helvetica,sans-Serif" font-size="10.00" fill="grey"> key</text>
<text text-anchor="middle" x="103" y="-260" font-family="Helvetica,sans-Serif" font-size="10.00" fill="grey">value</text>
</g>
<!-- Node3&#45;&gt;Node1 -->
<g id="edge2_Node000001_Node000003" class="edge">
<title>Node3&#45;&gt;Node1</title>
<g id="a_edge2_Node000001_Node000003"><a xlink:title=" ">
<path fill="none" stroke="#9a32cd" stroke-dasharray="5,2" d="M61.44,-55.74C62.78,-49.51 64.84,-42.71 68,-37 71.81,-30.12 77.89,-23.78 83.22,-19.03"/>
<polygon fill="#9a32cd" stroke="#9a32cd" points="57.93,-55.55 59.73,-65.99 64.83,-56.7 57.93,-55.55"/>
</a>
</g>
<text text-anchor="middle" x="85" y="-40" font-family="Helvetica,sans-Serif" font-size="10.00" fill="grey"> tables</text>
</g>
<!-- Node4 -->
<g id="Node000004" class="node">
<title>Node4</title>
<g id="a_Node000004"><a xlink:href="structSDBEntryList.html" target="_top" xlink:title=" ">
<polygon fill="white" stroke="#666666" points="161,-151 81,-151 81,-132 161,-132 161,-151"/>
<text text-anchor="middle" x="121" y="-139" font-family="Helvetica,sans-Serif" font-size="10.00">SDBEntryList</text>
</a>
</g>
</g>
<!-- Node4&#45;&gt;Node3 -->
<g id="edge4_Node000003_Node000004" class="edge">
<title>Node4&#45;&gt;Node3</title>
<g id="a_edge4_Node000003_Node000004"><a xlink:title=" ">
<path fill="none" stroke="#9a32cd" stroke-dasharray="5,2" d="M105.48,-124.48C93.51,-112.12 77.4,-95.49 67.63,-85.41"/>
<polygon fill="#9a32cd" stroke="#9a32cd" points="103.17,-127.12 112.64,-131.87 108.19,-122.25 103.17,-127.12"/>
</a>
</g>
<text text-anchor="middle" x="111.5" y="-106" font-family="Helvetica,sans-Serif" font-size="10.00" fill="grey"> entries</text>
</g>
<!-- Node5&#45;&gt;Node4 -->
<g id="edge5_Node000004_Node000005" class="edge">
<title>Node5&#45;&gt;Node4</title>
<g id="a_edge5_Node000004_Node000005"><a xlink:title=" ">
<path fill="none" stroke="#9a32cd" stroke-dasharray="5,2" d="M113.95,-209.91C115.85,-191.67 118.68,-164.65 120.11,-151.03"/>
<polygon fill="#9a32cd" stroke="#9a32cd" points="110.46,-209.63 112.9,-219.94 117.42,-210.36 110.46,-209.63"/>
</a>
</g>
<text text-anchor="middle" x="136.5" y="-194" font-family="Helvetica,sans-Serif" font-size="10.00" fill="grey"> entries</text>
<text text-anchor="middle" x="136.5" y="-183" font-family="Helvetica,sans-Serif" font-size="10.00" fill="grey">head</text>
<text text-anchor="middle" x="136.5" y="-172" font-family="Helvetica,sans-Serif" font-size="10.00" fill="grey">tail</text>
</g>
<!-- Node5&#45;&gt;Node5 -->
<g id="edge7_Node000005_Node000005" class="edge">
<title>Node5&#45;&gt;Node5</title>
<g id="a_edge7_Node000005_Node000005"><a xlink:title=" ">
<path fill="none" stroke="#9a32cd" stroke-dasharray="5,2" d="M153.15,-235.57C157.91,-234.45 161,-232.42 161,-229.5 161,-224.82 153.09,-222.45 143.1,-222.38"/>
<polygon fill="#9a32cd" stroke="#9a32cd" points="152.68,-232.1 143.1,-236.62 153.41,-239.06 152.68,-232.1"/>
</a>
</g>
<text text-anchor="middle" x="173.5" y="-227" font-family="Helvetica,sans-Serif" font-size="10.00" fill="grey"> next</text>
</g>
<!-- Node6 -->
<g id="Node000006" class="node">
<title>Node6</title>
<g id="a_Node000006"><a xlink:title=" ">
<polygon fill="white" stroke="#666666" points="249.5,-239 204.5,-239 204.5,-220 249.5,-220 249.5,-239"/>
<text text-anchor="middle" x="227" y="-227" font-family="Helvetica,sans-Serif" font-size="10.00">size_t</text>
</a>
</g>
</g>
<!-- Node6&#45;&gt;Node4 -->
<g id="edge8_Node000004_Node000006" class="edge">
<title>Node6&#45;&gt;Node4</title>
<g id="a_edge8_Node000004_Node000006"><a xlink:title=" ">
<path fill="none" stroke="#9a32cd" stroke-dasharray="5,2" d="M210.05,-212.74C196.55,-200.42 177.01,-183.09 159,-169 151.02,-162.76 141.69,-156.24 134.27,-151.23"/>
<polygon fill="#9a32cd" stroke="#9a32cd" points="207.87,-215.49 217.6,-219.68 212.61,-210.34 207.87,-215.49"/>
</a>
</g>
<text text-anchor="middle" x="218.5" y="-183" font-family="Helvetica,sans-Serif" font-size="10.00" fill="grey"> capacity</text>
</g>
<!-- Node7 -->
<g id="Node000007" class="node">
<title>Node7</title>
<g id="a_Node000007"><a xlink:title=" ">
<polygon fill="white" stroke="#666666" points="137.5,-85 108.5,-85 108.5,-66 137.5,-66 137.5,-85"/>
<text text-anchor="middle" x="123" y="-73" font-family="Helvetica,sans-Serif" font-size="10.00">int</text>
</a>
</g>
</g>
<!-- Node7&#45;&gt;Node1 -->
<g id="edge9_Node000001_Node000007" class="edge">
<title>Node7&#45;&gt;Node1</title>
<g id="a_edge9_Node000001_Node000007"><a xlink:title=" ">
<path fill="none" stroke="#9a32cd" stroke-dasharray="5,2" d="M114.93,-56.68C109.43,-44.55 102.39,-29.01 98.04,-19.41"/>
<polygon fill="#9a32cd" stroke="#9a32cd" points="111.77,-58.2 119.09,-65.87 118.15,-55.32 111.77,-58.2"/>
</a>
</g>
<text text-anchor="middle" x="140.5" y="-40" font-family="Helvetica,sans-Serif" font-size="10.00" fill="grey"> table_count</text>
</g>
<!-- Node8 -->
<g id="Node000008" class="node">
<title>Node8</title>
<g id="a_Node000008"><a xlink:title=" ">
<polygon fill="white" stroke="#666666" points="264,-85 156,-85 156,-66 264,-66 264,-85"/>
<text text-anchor="middle" x="210" y="-73" font-family="Helvetica,sans-Serif" font-size="10.00">SDBCompressType</text>
</a>
</g>
</g>
<!-- Node8&#45;&gt;Node1 -->
<g id="edge10_Node000001_Node000008" class="edge">
<title>Node8&#45;&gt;Node1</title>
<g id="a_edge10_Node000001_Node000008"><a xlink:title=" ">
<path fill="none" stroke="#9a32cd" stroke-dasharray="5,2" d="M197.7,-57.92C191.57,-50.64 183.63,-42.51 175,-37 159.28,-26.97 139.42,-20.39 123.29,-16.3"/>
<polygon fill="#9a32cd" stroke="#9a32cd" points="195.04,-60.2 203.99,-65.87 200.53,-55.86 195.04,-60.2"/>
</a>
</g>
<text text-anchor="middle" x="227" y="-40" font-family="Helvetica,sans-Serif" font-size="10.00" fill="grey"> compress_type</text>
</g>
</g>
</svg>
</svg>

<style type='text/css'>
<![CDATA[
[data-mouse-over-selected='false'] { opacity: 0.7; }
[data-mouse-over-selected='true']  { opacity: 1.0; }
]]>
</style>
<script type="application/ecmascript"><![CDATA[
document.addEventListener('DOMContentLoaded', (event) => {
  highlightEdges();
  highlightAdjacentNodes();
});
]]></script>
</svg>
