<?xml version="1.0" encoding="UTF-8" standalone="no"?>
<!DOCTYPE svg PUBLIC "-//W3C//DTD SVG 1.1//EN"
 "http://www.w3.org/Graphics/SVG/1.1/DTD/svg11.dtd">
<!-- Generated by graphviz version 2.43.0 (0)
 -->
<!-- Title: SDBPool Pages: 1 -->
<svg width="274pt" height="329pt"
 viewBox="0.00 0.00 274.00 329.00" xmlns="http://www.w3.org/2000/svg" xmlns:xlink="http://www.w3.org/1999/xlink">
<g id="graph0" class="graph" transform="scale(1 1) rotate(0) translate(4 325)">
<title>SDBPool</title>
<!-- Node1 -->
<g id="node1" class="node">
<title>Node1</title>
<g id="a_node1"><a xlink:title=" ">
<polygon fill="#bfbfbf" stroke="black" points="65,-0.5 65,-19.5 123,-19.5 123,-0.5 65,-0.5"/>
<text text-anchor="middle" x="94" y="-7.5" font-family="Helvetica,sans-Serif" font-size="10.00">SDBPool</text>
</a>
</g>
</g>
<!-- Node2 -->
<g id="node2" class="node">
<title>Node2</title>
<g id="a_node2"><a xlink:href="structSDBTable.html" target="_top" xlink:title=" ">
<polygon fill="none" stroke="black" points="28,-67.5 28,-86.5 90,-86.5 90,-67.5 28,-67.5"/>
<text text-anchor="middle" x="59" y="-74.5" font-family="Helvetica,sans-Serif" font-size="10.00">SDBTable</text>
</a>
</g>
</g>
<!-- Node2&#45;&gt;Node1 -->
<g id="edge1" class="edge">
<title>Node2&#45;&gt;Node1</title>
<path fill="none" stroke="#9a32cd" stroke-dasharray="5,2" d="M61.34,-57.48C62.67,-51.04 64.75,-43.95 68,-38 71.8,-31.03 77.89,-24.57 83.21,-19.72"/>
<polygon fill="#9a32cd" stroke="#9a32cd" points="57.88,-56.95 59.73,-67.38 64.79,-58.08 57.88,-56.95"/>
<text text-anchor="middle" x="85" y="-41" font-family="Helvetica,sans-Serif" font-size="10.00"> tables</text>
</g>
<!-- Node3 -->
<g id="node3" class="node">
<title>Node3</title>
<g id="a_node3"><a xlink:href="structSDBEntryList.html" target="_top" xlink:title=" ">
<polygon fill="none" stroke="black" points="81,-134.5 81,-153.5 161,-153.5 161,-134.5 81,-134.5"/>
<text text-anchor="middle" x="121" y="-141.5" font-family="Helvetica,sans-Serif" font-size="10.00">SDBEntryList</text>
</a>
</g>
</g>
<!-- Node3&#45;&gt;Node2 -->
<g id="edge2" class="edge">
<title>Node3&#45;&gt;Node2</title>
<path fill="none" stroke="#9a32cd" stroke-dasharray="5,2" d="M105.74,-127C93.58,-114.25 77.02,-96.89 67.23,-86.63"/>
<polygon fill="#9a32cd" stroke="#9a32cd" points="103.2,-129.41 112.64,-134.23 108.27,-124.58 103.2,-129.41"/>
<text text-anchor="middle" x="111.5" y="-108" font-family="Helvetica,sans-Serif" font-size="10.00"> entries</text>
</g>
<!-- Node4 -->
<g id="node4" class="node">
<title>Node4</title>
<g id="a_node4"><a xlink:href="structSDBEntry.html" target="_top" xlink:title=" ">
<polygon fill="none" stroke="black" points="81,-223.5 81,-242.5 143,-242.5 143,-223.5 81,-223.5"/>
<text text-anchor="middle" x="112" y="-230.5" font-family="Helvetica,sans-Serif" font-size="10.00">SDBEntry</text>
</a>
</g>
</g>
<!-- Node4&#45;&gt;Node3 -->
<g id="edge3" class="edge">
<title>Node4&#45;&gt;Node3</title>
<path fill="none" stroke="#9a32cd" stroke-dasharray="5,2" d="M113.95,-213.19C115.85,-194.74 118.68,-167.41 120.11,-153.62"/>
<polygon fill="#9a32cd" stroke="#9a32cd" points="110.44,-213.03 112.9,-223.34 117.41,-213.75 110.44,-213.03"/>
<text text-anchor="middle" x="136.5" y="-197" font-family="Helvetica,sans-Serif" font-size="10.00"> entries</text>
<text text-anchor="middle" x="136.5" y="-186" font-family="Helvetica,sans-Serif" font-size="10.00">head</text>
<text text-anchor="middle" x="136.5" y="-175" font-family="Helvetica,sans-Serif" font-size="10.00">tail</text>
</g>
<!-- Node4&#45;&gt;Node4 -->
<g id="edge4" class="edge">
<title>Node4&#45;&gt;Node4</title>
<path fill="none" stroke="#9a32cd" stroke-dasharray="5,2" d="M153.15,-239.07C157.91,-237.95 161,-235.92 161,-233 161,-228.32 153.09,-225.95 143.1,-225.88"/>
<polygon fill="#9a32cd" stroke="#9a32cd" points="152.68,-235.6 143.1,-240.12 153.41,-242.56 152.68,-235.6"/>
<text text-anchor="middle" x="173.5" y="-230.5" font-family="Helvetica,sans-Serif" font-size="10.00"> next</text>
</g>
<!-- Node5 -->
<g id="node5" class="node">
<title>Node5</title>
<g id="a_node5"><a xlink:title=" ">
<polygon fill="none" stroke="#bfbfbf" points="30,-301.5 30,-320.5 76,-320.5 76,-301.5 30,-301.5"/>
<text text-anchor="middle" x="53" y="-308.5" font-family="Helvetica,sans-Serif" font-size="10.00">char *</text>
</a>
</g>
</g>
<!-- Node5&#45;&gt;Node1 -->
<g id="edge10" class="edge">
<title>Node5&#45;&gt;Node1</title>
<path fill="none" stroke="#9a32cd" stroke-dasharray="5,2" d="M33.58,-294.4C18.45,-280.38 0,-258.29 0,-234 0,-234 0,-234 0,-76 0,-44.06 37.18,-26.58 64.77,-18.01"/>
<polygon fill="#9a32cd" stroke="#9a32cd" points="31.67,-297.38 41.5,-301.32 36.27,-292.11 31.67,-297.38"/>
<text text-anchor="middle" x="12.5" y="-141.5" font-family="Helvetica,sans-Serif" font-size="10.00"> path</text>
</g>
<!-- Node5&#45;&gt;Node2 -->
<g id="edge7" class="edge">
<title>Node5&#45;&gt;Node2</title>
<path fill="none" stroke="#9a32cd" stroke-dasharray="5,2" d="M53.48,-291.44C54.7,-244.24 57.89,-120.96 58.77,-86.86"/>
<polygon fill="#9a32cd" stroke="#9a32cd" points="49.98,-291.38 53.22,-301.47 56.98,-291.56 49.98,-291.38"/>
<text text-anchor="middle" x="71.5" y="-186" font-family="Helvetica,sans-Serif" font-size="10.00"> name</text>
</g>
<!-- Node5&#45;&gt;Node4 -->
<g id="edge5" class="edge">
<title>Node5&#45;&gt;Node4</title>
<path fill="none" stroke="#9a32cd" stroke-dasharray="5,2" d="M66.19,-293.01C78.33,-277.37 95.84,-254.81 105.31,-242.62"/>
<polygon fill="#9a32cd" stroke="#9a32cd" points="63.14,-291.24 59.77,-301.28 68.66,-295.53 63.14,-291.24"/>
<text text-anchor="middle" x="103" y="-275" font-family="Helvetica,sans-Serif" font-size="10.00"> key</text>
<text text-anchor="middle" x="103" y="-264" font-family="Helvetica,sans-Serif" font-size="10.00">value</text>
</g>
<!-- Node6 -->
<g id="node6" class="node">
<title>Node6</title>
<g id="a_node6"><a xlink:title=" ">
<polygon fill="none" stroke="#bfbfbf" points="204.5,-223.5 204.5,-242.5 249.5,-242.5 249.5,-223.5 204.5,-223.5"/>
<text text-anchor="middle" x="227" y="-230.5" font-family="Helvetica,sans-Serif" font-size="10.00">size_t</text>
</a>
</g>
</g>
<!-- Node6&#45;&gt;Node3 -->
<g id="edge6" class="edge">
<title>Node6&#45;&gt;Node3</title>
<path fill="none" stroke="#9a32cd" stroke-dasharray="5,2" d="M210.03,-216.13C196.53,-203.73 176.98,-186.26 159,-172 150.88,-165.56 141.38,-158.81 133.91,-153.67"/>
<polygon fill="#9a32cd" stroke="#9a32cd" points="207.87,-218.9 217.59,-223.13 212.63,-213.77 207.87,-218.9"/>
<text text-anchor="middle" x="218.5" y="-186" font-family="Helvetica,sans-Serif" font-size="10.00"> capacity</text>
</g>
<!-- Node7 -->
<g id="node7" class="node">
<title>Node7</title>
<g id="a_node7"><a xlink:title=" ">
<polygon fill="none" stroke="#bfbfbf" points="108.5,-67.5 108.5,-86.5 137.5,-86.5 137.5,-67.5 108.5,-67.5"/>
<text text-anchor="middle" x="123" y="-74.5" font-family="Helvetica,sans-Serif" font-size="10.00">int</text>
</a>
</g>
</g>
<!-- Node7&#45;&gt;Node1 -->
<g id="edge8" class="edge">
<title>Node7&#45;&gt;Node1</title>
<path fill="none" stroke="#9a32cd" stroke-dasharray="5,2" d="M114.88,-57.79C109.31,-45.31 102.17,-29.31 97.85,-19.63"/>
<polygon fill="#9a32cd" stroke="#9a32cd" points="111.82,-59.53 119.09,-67.23 118.21,-56.68 111.82,-59.53"/>
<text text-anchor="middle" x="140.5" y="-41" font-family="Helvetica,sans-Serif" font-size="10.00"> table_count</text>
</g>
<!-- Node8 -->
<g id="node8" class="node">
<title>Node8</title>
<g id="a_node8"><a xlink:title=" ">
<polygon fill="none" stroke="#bfbfbf" points="156,-67.5 156,-86.5 264,-86.5 264,-67.5 156,-67.5"/>
<text text-anchor="middle" x="210" y="-74.5" font-family="Helvetica,sans-Serif" font-size="10.00">SDBCompressType</text>
</a>
</g>
</g>
<!-- Node8&#45;&gt;Node1 -->
<g id="edge9" class="edge">
<title>Node8&#45;&gt;Node1</title>
<path fill="none" stroke="#9a32cd" stroke-dasharray="5,2" d="M197.73,-59.21C191.6,-51.84 183.66,-43.6 175,-38 159.32,-27.86 139.45,-21.16 123.32,-16.97"/>
<polygon fill="#9a32cd" stroke="#9a32cd" points="195.1,-61.54 204.01,-67.26 200.62,-57.23 195.1,-61.54"/>
<text text-anchor="middle" x="227" y="-41" font-family="Helvetica,sans-Serif" font-size="10.00"> compress_type</text>
</g>
</g>
</svg>
