<?xml version="1.0" encoding="UTF-8" standalone="no"?>
<!DOCTYPE svg PUBLIC "-//W3C//DTD SVG 1.1//EN"
 "http://www.w3.org/Graphics/SVG/1.1/DTD/svg11.dtd">
<!-- Generated by graphviz version 2.43.0 (0)
 -->
<!-- Title: SDBEntryList Pages: 1 -->
<svg width="180pt" height="195pt"
 viewBox="0.00 0.00 180.00 195.00" xmlns="http://www.w3.org/2000/svg" xmlns:xlink="http://www.w3.org/1999/xlink">
<g id="graph0" class="graph" transform="scale(1 1) rotate(0) translate(4 191)">
<title>SDBEntryList</title>
<!-- Node1 -->
<g id="node1" class="node">
<title>Node1</title>
<g id="a_node1"><a xlink:title=" ">
<polygon fill="#bfbfbf" stroke="black" points="49,-0.5 49,-19.5 129,-19.5 129,-0.5 49,-0.5"/>
<text text-anchor="middle" x="89" y="-7.5" font-family="Helvetica,sans-Serif" font-size="10.00">SDBEntryList</text>
</a>
</g>
</g>
<!-- Node2 -->
<g id="node2" class="node">
<title>Node2</title>
<g id="a_node2"><a xlink:href="structSDBEntry.html" target="_top" xlink:title=" ">
<polygon fill="none" stroke="black" points="0,-89.5 0,-108.5 62,-108.5 62,-89.5 0,-89.5"/>
<text text-anchor="middle" x="31" y="-96.5" font-family="Helvetica,sans-Serif" font-size="10.00">SDBEntry</text>
</a>
</g>
</g>
<!-- Node2&#45;&gt;Node1 -->
<g id="edge1" class="edge">
<title>Node2&#45;&gt;Node1</title>
<path fill="none" stroke="#9a32cd" stroke-dasharray="5,2" d="M40.39,-80.03C47.02,-67.83 56.41,-51.53 66,-38 70.56,-31.57 76.31,-24.82 80.92,-19.68"/>
<polygon fill="#9a32cd" stroke="#9a32cd" points="37.14,-78.69 35.52,-89.16 43.32,-81.98 37.14,-78.69"/>
<text text-anchor="middle" x="84.5" y="-63" font-family="Helvetica,sans-Serif" font-size="10.00"> entries</text>
<text text-anchor="middle" x="84.5" y="-52" font-family="Helvetica,sans-Serif" font-size="10.00">head</text>
<text text-anchor="middle" x="84.5" y="-41" font-family="Helvetica,sans-Serif" font-size="10.00">tail</text>
</g>
<!-- Node2&#45;&gt;Node2 -->
<g id="edge2" class="edge">
<title>Node2&#45;&gt;Node2</title>
<path fill="none" stroke="#9a32cd" stroke-dasharray="5,2" d="M72.15,-105.07C76.91,-103.95 80,-101.92 80,-99 80,-94.32 72.09,-91.95 62.1,-91.88"/>
<polygon fill="#9a32cd" stroke="#9a32cd" points="71.68,-101.6 62.1,-106.12 72.41,-108.56 71.68,-101.6"/>
<text text-anchor="middle" x="92.5" y="-96.5" font-family="Helvetica,sans-Serif" font-size="10.00"> next</text>
</g>
<!-- Node3 -->
<g id="node3" class="node">
<title>Node3</title>
<g id="a_node3"><a xlink:title=" ">
<polygon fill="none" stroke="#bfbfbf" points="8,-167.5 8,-186.5 54,-186.5 54,-167.5 8,-167.5"/>
<text text-anchor="middle" x="31" y="-174.5" font-family="Helvetica,sans-Serif" font-size="10.00">char *</text>
</a>
</g>
</g>
<!-- Node3&#45;&gt;Node2 -->
<g id="edge3" class="edge">
<title>Node3&#45;&gt;Node2</title>
<path fill="none" stroke="#9a32cd" stroke-dasharray="5,2" d="M31,-157.22C31,-141.7 31,-120.36 31,-108.62"/>
<polygon fill="#9a32cd" stroke="#9a32cd" points="27.5,-157.28 31,-167.28 34.5,-157.28 27.5,-157.28"/>
<text text-anchor="middle" x="45" y="-141" font-family="Helvetica,sans-Serif" font-size="10.00"> key</text>
<text text-anchor="middle" x="45" y="-130" font-family="Helvetica,sans-Serif" font-size="10.00">value</text>
</g>
<!-- Node4 -->
<g id="node4" class="node">
<title>Node4</title>
<g id="a_node4"><a xlink:title=" ">
<polygon fill="none" stroke="#bfbfbf" points="123.5,-89.5 123.5,-108.5 168.5,-108.5 168.5,-89.5 123.5,-89.5"/>
<text text-anchor="middle" x="146" y="-96.5" font-family="Helvetica,sans-Serif" font-size="10.00">size_t</text>
</a>
</g>
</g>
<!-- Node4&#45;&gt;Node1 -->
<g id="edge4" class="edge">
<title>Node4&#45;&gt;Node1</title>
<path fill="none" stroke="#9a32cd" stroke-dasharray="5,2" d="M134.69,-80.74C122.61,-62.3 103.94,-33.8 94.65,-19.62"/>
<polygon fill="#9a32cd" stroke="#9a32cd" points="131.92,-82.89 140.33,-89.34 137.77,-79.06 131.92,-82.89"/>
<text text-anchor="middle" x="149.5" y="-52" font-family="Helvetica,sans-Serif" font-size="10.00"> capacity</text>
</g>
</g>
</svg>
