<?xml version="1.0" encoding="UTF-8" standalone="no"?>
<!DOCTYPE svg PUBLIC "-//W3C//DTD SVG 1.1//EN"
 "http://www.w3.org/Graphics/SVG/1.1/DTD/svg11.dtd">
<!-- Generated by graphviz version 2.43.0 (0)
 -->
<!-- Title: SDBTable Pages: 1 -->
<svg width="212pt" height="262pt"
 viewBox="0.00 0.00 211.50 262.00" xmlns="http://www.w3.org/2000/svg" xmlns:xlink="http://www.w3.org/1999/xlink">
<g id="graph0" class="graph" transform="scale(1 1) rotate(0) translate(4 258)">
<title>SDBTable</title>
<!-- Node1 -->
<g id="node1" class="node">
<title>Node1</title>
<g id="a_node1"><a xlink:title=" ">
<polygon fill="#bfbfbf" stroke="black" points="1,-0.5 1,-19.5 63,-19.5 63,-0.5 1,-0.5"/>
<text text-anchor="middle" x="32" y="-7.5" font-family="Helvetica,sans-Serif" font-size="10.00">SDBTable</text>
</a>
</g>
</g>
<!-- Node2 -->
<g id="node2" class="node">
<title>Node2</title>
<g id="a_node2"><a xlink:href="structSDBEntryList.html" target="_top" xlink:title=" ">
<polygon fill="none" stroke="black" points="35,-67.5 35,-86.5 115,-86.5 115,-67.5 35,-67.5"/>
<text text-anchor="middle" x="75" y="-74.5" font-family="Helvetica,sans-Serif" font-size="10.00">SDBEntryList</text>
</a>
</g>
</g>
<!-- Node2&#45;&gt;Node1 -->
<g id="edge1" class="edge">
<title>Node2&#45;&gt;Node1</title>
<path fill="none" stroke="#9a32cd" stroke-dasharray="5,2" d="M63.45,-58.53C55.12,-45.95 44.24,-29.51 37.71,-19.63"/>
<polygon fill="#9a32cd" stroke="#9a32cd" points="60.76,-60.82 69.2,-67.23 66.6,-56.96 60.76,-60.82"/>
<text text-anchor="middle" x="75.5" y="-41" font-family="Helvetica,sans-Serif" font-size="10.00"> entries</text>
</g>
<!-- Node3 -->
<g id="node3" class="node">
<title>Node3</title>
<g id="a_node3"><a xlink:href="structSDBEntry.html" target="_top" xlink:title=" ">
<polygon fill="none" stroke="black" points="35,-156.5 35,-175.5 97,-175.5 97,-156.5 35,-156.5"/>
<text text-anchor="middle" x="66" y="-163.5" font-family="Helvetica,sans-Serif" font-size="10.00">SDBEntry</text>
</a>
</g>
</g>
<!-- Node3&#45;&gt;Node2 -->
<g id="edge2" class="edge">
<title>Node3&#45;&gt;Node2</title>
<path fill="none" stroke="#9a32cd" stroke-dasharray="5,2" d="M67.95,-146.19C69.85,-127.74 72.68,-100.41 74.11,-86.62"/>
<polygon fill="#9a32cd" stroke="#9a32cd" points="64.44,-146.03 66.9,-156.34 71.41,-146.75 64.44,-146.03"/>
<text text-anchor="middle" x="91.5" y="-130" font-family="Helvetica,sans-Serif" font-size="10.00"> entries</text>
<text text-anchor="middle" x="91.5" y="-119" font-family="Helvetica,sans-Serif" font-size="10.00">head</text>
<text text-anchor="middle" x="91.5" y="-108" font-family="Helvetica,sans-Serif" font-size="10.00">tail</text>
</g>
<!-- Node3&#45;&gt;Node3 -->
<g id="edge3" class="edge">
<title>Node3&#45;&gt;Node3</title>
<path fill="none" stroke="#9a32cd" stroke-dasharray="5,2" d="M107.15,-172.07C111.91,-170.95 115,-168.92 115,-166 115,-161.32 107.09,-158.95 97.1,-158.88"/>
<polygon fill="#9a32cd" stroke="#9a32cd" points="106.68,-168.6 97.1,-173.12 107.41,-175.56 106.68,-168.6"/>
<text text-anchor="middle" x="127.5" y="-163.5" font-family="Helvetica,sans-Serif" font-size="10.00"> next</text>
</g>
<!-- Node4 -->
<g id="node4" class="node">
<title>Node4</title>
<g id="a_node4"><a xlink:title=" ">
<polygon fill="none" stroke="#bfbfbf" points="0,-234.5 0,-253.5 46,-253.5 46,-234.5 0,-234.5"/>
<text text-anchor="middle" x="23" y="-241.5" font-family="Helvetica,sans-Serif" font-size="10.00">char *</text>
</a>
</g>
</g>
<!-- Node4&#45;&gt;Node1 -->
<g id="edge6" class="edge">
<title>Node4&#45;&gt;Node1</title>
<path fill="none" stroke="#9a32cd" stroke-dasharray="5,2" d="M22.77,-223.98C22.49,-191.68 22.46,-124.05 26,-67 27.04,-50.21 29.39,-30.71 30.82,-19.71"/>
<polygon fill="#9a32cd" stroke="#9a32cd" points="19.27,-224.24 22.87,-234.2 26.27,-224.16 19.27,-224.24"/>
<text text-anchor="middle" x="40.5" y="-119" font-family="Helvetica,sans-Serif" font-size="10.00"> name</text>
</g>
<!-- Node4&#45;&gt;Node3 -->
<g id="edge4" class="edge">
<title>Node4&#45;&gt;Node3</title>
<path fill="none" stroke="#9a32cd" stroke-dasharray="5,2" d="M32.86,-225.57C41.7,-209.95 54.29,-187.7 61.12,-175.62"/>
<polygon fill="#9a32cd" stroke="#9a32cd" points="29.81,-223.85 27.93,-234.28 35.9,-227.3 29.81,-223.85"/>
<text text-anchor="middle" x="64" y="-208" font-family="Helvetica,sans-Serif" font-size="10.00"> key</text>
<text text-anchor="middle" x="64" y="-197" font-family="Helvetica,sans-Serif" font-size="10.00">value</text>
</g>
<!-- Node5 -->
<g id="node5" class="node">
<title>Node5</title>
<g id="a_node5"><a xlink:title=" ">
<polygon fill="none" stroke="#bfbfbf" points="158.5,-156.5 158.5,-175.5 203.5,-175.5 203.5,-156.5 158.5,-156.5"/>
<text text-anchor="middle" x="181" y="-163.5" font-family="Helvetica,sans-Serif" font-size="10.00">size_t</text>
</a>
</g>
</g>
<!-- Node5&#45;&gt;Node2 -->
<g id="edge5" class="edge">
<title>Node5&#45;&gt;Node2</title>
<path fill="none" stroke="#9a32cd" stroke-dasharray="5,2" d="M164.81,-149.47C151.54,-136.99 132.07,-119.26 114,-105 105.72,-98.47 95.97,-91.72 88.29,-86.6"/>
<polygon fill="#9a32cd" stroke="#9a32cd" points="162.54,-152.14 172.21,-156.48 167.36,-147.06 162.54,-152.14"/>
<text text-anchor="middle" x="173.5" y="-119" font-family="Helvetica,sans-Serif" font-size="10.00"> capacity</text>
</g>
</g>
</svg>
