<?xml version="1.0" encoding="UTF-8" standalone="no"?>
<!DOCTYPE svg PUBLIC "-//W3C//DTD SVG 1.1//EN"
 "http://www.w3.org/Graphics/SVG/1.1/DTD/svg11.dtd">
<!-- Generated by graphviz version 2.43.0 (0)
 -->
<!-- Title: SDBEntry Pages: 1 -->
<svg width="113pt" height="106pt"
 viewBox="0.00 0.00 113.00 106.00" xmlns="http://www.w3.org/2000/svg" xmlns:xlink="http://www.w3.org/1999/xlink">
<g id="graph0" class="graph" transform="scale(1 1) rotate(0) translate(4 102)">
<title>SDBEntry</title>
<!-- Node1 -->
<g id="node1" class="node">
<title>Node1</title>
<g id="a_node1"><a xlink:title=" ">
<polygon fill="#bfbfbf" stroke="black" points="0,-0.5 0,-19.5 62,-19.5 62,-0.5 0,-0.5"/>
<text text-anchor="middle" x="31" y="-7.5" font-family="Helvetica,sans-Serif" font-size="10.00">SDBEntry</text>
</a>
</g>
</g>
<!-- Node1&#45;&gt;Node1 -->
<g id="edge1" class="edge">
<title>Node1&#45;&gt;Node1</title>
<path fill="none" stroke="#9a32cd" stroke-dasharray="5,2" d="M72.15,-16.07C76.91,-14.95 80,-12.92 80,-10 80,-5.32 72.09,-2.95 62.1,-2.88"/>
<polygon fill="#9a32cd" stroke="#9a32cd" points="71.68,-12.6 62.1,-17.12 72.41,-19.56 71.68,-12.6"/>
<text text-anchor="middle" x="92.5" y="-7.5" font-family="Helvetica,sans-Serif" font-size="10.00"> next</text>
</g>
<!-- Node2 -->
<g id="node2" class="node">
<title>Node2</title>
<g id="a_node2"><a xlink:title=" ">
<polygon fill="none" stroke="#bfbfbf" points="8,-78.5 8,-97.5 54,-97.5 54,-78.5 8,-78.5"/>
<text text-anchor="middle" x="31" y="-85.5" font-family="Helvetica,sans-Serif" font-size="10.00">char *</text>
</a>
</g>
</g>
<!-- Node2&#45;&gt;Node1 -->
<g id="edge2" class="edge">
<title>Node2&#45;&gt;Node1</title>
<path fill="none" stroke="#9a32cd" stroke-dasharray="5,2" d="M31,-68.22C31,-52.7 31,-31.36 31,-19.62"/>
<polygon fill="#9a32cd" stroke="#9a32cd" points="27.5,-68.28 31,-78.28 34.5,-68.28 27.5,-68.28"/>
<text text-anchor="middle" x="45" y="-52" font-family="Helvetica,sans-Serif" font-size="10.00"> key</text>
<text text-anchor="middle" x="45" y="-41" font-family="Helvetica,sans-Serif" font-size="10.00">value</text>
</g>
</g>
</svg>
